<?xml version="1.0" encoding="UTF-8"?>
<svg version="1.1" xmlns="http://www.w3.org/2000/svg" width="750" height="750">
<path d="M0 0 C6.55166461 4.68802856 11.66632514 11.30250814 13.25 19.3125 C14.27131974 29.85352839 13.14217534 38.66802265 6.5 47.125 C3.19300527 50.64748812 -0.45374508 53.13243012 -4.75 55.3125 C-5.38164063 55.63347656 -6.01328125 55.95445312 -6.6640625 56.28515625 C-16.67383656 60.4397922 -30.1568281 59.61090206 -40.1015625 55.6875 C-47.94378419 51.61602207 -53.08550004 45.75307135 -56.70703125 37.71875 C-59.38453967 28.97422811 -59.08895223 20.19051168 -55.3125 11.8125 C-50.26428008 3.15168447 -43.80446944 -2.286072 -34.12890625 -5.06640625 C-22.1877929 -7.26136235 -10.49440915 -6.38714454 0 0 Z " fill="#2E3132" transform="translate(542.75,333.6875)"/>
<path d="M0 0 C6.54696132 -0.07637583 13.09380673 -0.12873618 19.64111328 -0.16479492 C21.86609185 -0.17983512 24.09104101 -0.20027246 26.31591797 -0.22631836 C29.52318606 -0.26291135 32.73006045 -0.2797745 35.9375 -0.29296875 C36.92427734 -0.30845261 37.91105469 -0.32393646 38.92773438 -0.33988953 C47.30569823 -0.34190829 54.0661297 1.3535632 60.39453125 7.1171875 C68.07318029 16.12231849 68.64423392 26.57160851 68.17919922 37.83886719 C67.54697855 45.46341405 63.64053956 51.96236847 58 57 C52.94110834 60.59938495 48.38542133 62.13006834 42.23144531 62.11352539 C41.29077209 62.11344986 40.35009888 62.11337433 39.38092041 62.11329651 C38.37349792 62.10813522 37.36607544 62.10297394 36.328125 62.09765625 C35.29057068 62.0962413 34.25301636 62.09482635 33.184021 62.09336853 C29.87265124 62.08777447 26.56134929 62.07522303 23.25 62.0625 C21.00390723 62.05748423 18.75781339 62.05292146 16.51171875 62.04882812 C11.0077894 62.03780699 5.50389954 62.02107474 0 62 C0 61.34 0 60.68 0 60 C0.66 60 1.32 60 2 60 C2 40.86 2 21.72 2 2 C1.34 2 0.68 2 0 2 C0 1.34 0 0.68 0 0 Z M12 8 C12 23.18 12 38.36 12 54 C17.094375 54.103125 22.18875 54.20625 27.4375 54.3125 C29.82053345 54.38078003 29.82053345 54.38078003 32.25170898 54.45043945 C40.12581988 54.52744666 46.7539088 54.39336314 53 49 C57.64863065 43.42351767 59.20528221 36.13925922 59 29 C58.34016796 22.90155238 56.53292166 18.00497235 53 13 C47.5341232 8.76115677 43.45253873 7.85126275 36.70703125 7.90234375 C35.41514893 7.90484131 34.1232666 7.90733887 32.79223633 7.90991211 C31.14892334 7.91901611 29.50561035 7.92812012 27.8125 7.9375 C22.594375 7.958125 17.37625 7.97875 12 8 Z " fill="#1C1F20" transform="translate(407,329)"/>
<path d="M0 0 C0.66 0 1.32 0 2 0 C2 4.62 2 9.24 2 14 C1.34 14 0.68 14 0 14 C-0.495 13.01 -0.495 13.01 -1 12 C-15.85 11.67 -30.7 11.34 -46 11 C-46 17.27 -46 23.54 -46 30 C-35.44 30 -24.88 30 -14 30 C-13.505 28.515 -13.505 28.515 -13 27 C-12.34 27 -11.68 27 -11 27 C-11 31.62 -11 36.24 -11 41 C-11.99 40.67 -12.98 40.34 -14 40 C-14 39.34 -14 38.68 -14 38 C-24.56 38 -35.12 38 -46 38 C-46 44.27 -46 50.54 -46 57 C-23.725 56.505 -23.725 56.505 -1 56 C-0.505 55.01 -0.505 55.01 0 54 C0.66 54 1.32 54 2 54 C2 58.62 2 63.24 2 68 C0.68 67.34 -0.64 66.68 -2 66 C-4.66524741 65.67453723 -4.66524741 65.67453723 -7.59472656 65.68115234 C-8.71558655 65.66128265 -9.83644653 65.64141296 -10.99127197 65.62094116 C-12.19555847 65.60938995 -13.39984497 65.59783875 -14.640625 65.5859375 C-15.87794373 65.56657135 -17.11526245 65.5472052 -18.39007568 65.5272522 C-21.67138571 65.47762011 -24.95266112 65.43633933 -28.23413086 65.39910889 C-31.58588276 65.35902344 -34.93744345 65.30778775 -38.2890625 65.2578125 C-44.85926609 65.16175507 -51.42954355 65.07670723 -58 65 C-57.67 64.34 -57.34 63.68 -57 63 C-56.34 63 -55.68 63 -55 63 C-55 43.86 -55 24.72 -55 5 C-55.99 4.67 -56.98 4.34 -58 4 C-58 3.67 -58 3.34 -58 3 C-39.19 3 -20.38 3 -1 3 C-0.67 2.01 -0.34 1.02 0 0 Z " fill="#1C1F20" transform="translate(696,326)"/>
<path d="M0 0 C6.58358323 -0.07621035 13.16705222 -0.12866715 19.75097656 -0.16479492 C21.98962658 -0.17985964 24.22824719 -0.20031533 26.46679688 -0.22631836 C29.68887602 -0.26280283 32.91056411 -0.27974983 36.1328125 -0.29296875 C37.62846237 -0.31619453 37.62846237 -0.31619453 39.15432739 -0.33988953 C45.28685933 -0.34136699 49.95177744 0.15450958 54.64453125 4.53515625 C59.44640534 10.81453006 59.56372648 15.16932667 59 23 C57.12090092 28.53839728 54.01199383 31.4762017 48.83129883 34.09716797 C45.21650001 35.24983901 41.82473869 35.24924048 38.07421875 35.1953125 C37.32662796 35.1924826 36.57903717 35.18965271 35.80879211 35.18673706 C33.4348612 35.17559469 31.06131575 35.15050162 28.6875 35.125 C27.0722711 35.11496249 25.45703624 35.10583799 23.84179688 35.09765625 C19.89426539 35.07738131 15.94756118 35.03822275 12 35 C12 43.25 12 51.5 12 60 C12.99 60.33 13.98 60.66 15 61 C15 61.33 15 61.66 15 62 C10.05 62 5.1 62 0 62 C0.33 61.34 0.66 60.68 1 60 C1.09608064 58.16216054 1.12795892 56.32081744 1.12939453 54.48046875 C1.13254669 53.32587158 1.13569885 52.17127441 1.13894653 50.98168945 C1.1369223 49.72960693 1.13489807 48.47752441 1.1328125 47.1875 C1.13376923 45.90770264 1.13472595 44.62790527 1.13571167 43.30932617 C1.13718689 40.59910884 1.13503973 37.88892445 1.13037109 35.17871094 C1.12467389 31.70158771 1.12795384 28.22454166 1.13394356 24.74742126 C1.1384221 21.43577462 1.13528816 18.12414884 1.1328125 14.8125 C1.13483673 13.56041748 1.13686096 12.30833496 1.13894653 11.01831055 C1.13579437 9.86371338 1.13264221 8.70911621 1.12939453 7.51953125 C1.12859894 6.49964111 1.12780334 5.47975098 1.12698364 4.42895508 C1.16183415 1.99041197 1.16183415 1.99041197 0 0 Z M12 8 C12 14.27 12 20.54 12 27 C16.52099449 27.05407169 21.04133849 27.09371169 25.5625 27.125 C26.83931641 27.14175781 28.11613281 27.15851563 29.43164062 27.17578125 C38.43086899 27.32409602 38.43086899 27.32409602 47 25 C49.53014838 21.60011312 50 19.6093064 50 15.375 C48.7689598 11.22023931 47.6427429 10.27361518 44 8 C40.42542756 7.45120875 40.42542756 7.45120875 36.51171875 7.609375 C35.80852005 7.61503479 35.10532135 7.62069458 34.3808136 7.62652588 C32.14899752 7.64880231 29.91882539 7.69897627 27.6875 7.75 C26.16864309 7.77007657 24.64976084 7.78832532 23.13085938 7.8046875 C19.41944009 7.84522731 15.71154561 7.92351709 12 8 Z " fill="#1C1F20" transform="translate(568,329)"/>
<path d="M0 0 C6.55166461 4.68802856 11.66632514 11.30250814 13.25 19.3125 C14.27131974 29.85352839 13.14217534 38.66802265 6.5 47.125 C3.19300527 50.64748812 -0.45374508 53.13243012 -4.75 55.3125 C-5.38164063 55.63347656 -6.01328125 55.95445312 -6.6640625 56.28515625 C-16.67383656 60.4397922 -30.1568281 59.61090206 -40.1015625 55.6875 C-47.94378419 51.61602207 -53.08550004 45.75307135 -56.70703125 37.71875 C-59.38453967 28.97422811 -59.08895223 20.19051168 -55.3125 11.8125 C-50.26428008 3.15168447 -43.80446944 -2.286072 -34.12890625 -5.06640625 C-22.1877929 -7.26136235 -10.49440915 -6.38714454 0 0 Z M-45.75 8.3125 C-50.67235425 14.89959207 -51.56347704 21.4173129 -51.32421875 29.52734375 C-50.42165395 35.47690353 -47.91539403 40.25352204 -44.75 45.3125 C-44.09 45.3125 -43.43 45.3125 -42.75 45.3125 C-42.75 45.9725 -42.75 46.6325 -42.75 47.3125 C-40.60535214 48.87538033 -40.60535214 48.87538033 -37.9375 50.375 C-37.04417969 50.90222656 -36.15085937 51.42945313 -35.23046875 51.97265625 C-29.07207189 55.29916038 -22.57556591 55.04506848 -15.75 54.3125 C-7.3950711 51.60801435 -0.95838472 47.25819707 3.234375 39.48828125 C6.71518894 31.91915283 7.25442658 24.80614493 4.6875 16.875 C1.37813704 8.43959582 -3.67624702 3.39377377 -11.63671875 -0.77734375 C-23.97659405 -6.0919296 -37.20219107 -1.50516081 -45.75 8.3125 Z " fill="#1C1F20" transform="translate(542.75,333.6875)"/>
<path d="M0 0 C2.31 0 4.62 0 7 0 C5.35 7.92 3.7 15.84 2 24 C12.89 24 23.78 24 35 24 C36.27475482 16.85045544 36.27475482 16.85045544 37.54272461 9.69970703 C37.70264893 8.81138184 37.86257324 7.92305664 38.02734375 7.0078125 C38.18968506 6.09660645 38.35202637 5.18540039 38.51928711 4.24658203 C39 2 39 2 40 0 C42.31 0 44.62 0 47 0 C43.37 18.15 39.74 36.3 36 55 C33.69 55 31.38 55 29 55 C29.26291984 53.08223178 29.53591669 51.16584537 29.8125 49.25 C29.96332031 48.18265625 30.11414063 47.1153125 30.26953125 46.015625 C31.25054447 40.62267529 32.67055311 35.31778755 34 30 C17.665 30.495 17.665 30.495 1 31 C-0.65 38.92 -2.3 46.84 -4 55 C-6.31 55 -8.62 55 -11 55 C-9.55186634 44.59911291 -7.55883815 34.33041462 -5.48608398 24.03930664 C-4.93102453 21.28031286 -4.38225473 18.52011568 -3.83398438 15.75976562 C-3.48214149 14.00252991 -3.12994145 12.24536566 -2.77734375 10.48828125 C-2.61378891 9.66443436 -2.45023407 8.84058746 -2.28172302 7.99177551 C-1.11500884 2.23001767 -1.11500884 2.23001767 0 0 Z " fill="#1C1F20" transform="translate(116,333)"/>
<path d="M0 0 C-0.33 1.98 -0.66 3.96 -1 6 C-3.71108863 5.5215726 -6.11995142 4.95257735 -8.6875 3.9375 C-14.40675335 2.31884339 -20.32577619 2.0742681 -25.9375 4.25 C-29.75870503 6.41126455 -29.75870503 6.41126455 -32 10 C-31.93461426 13.20390133 -31.83972648 15.17342851 -29.50390625 17.47265625 C-25.17603583 20.11258969 -20.33183755 21.57040429 -15.5546875 23.21875 C-10.73614797 24.98395755 -7.7537591 26.4271781 -5 31 C-3.43737367 36.62545478 -4.18438231 39.93188815 -7 45 C-10.82883884 49.95496791 -14.99992666 51.81995532 -21 53 C-30.50446429 54.06325521 -38.99620384 52.33586411 -47 47 C-46.67 45.35 -46.34 43.7 -46 42 C-44.515 41.505 -44.515 41.505 -43 41 C-41.28057843 41.95523421 -39.56099998 42.91678997 -37.9140625 43.9921875 C-32.54654471 46.81834993 -25.89661413 46.49282552 -20 46 C-15.8389014 44.46696367 -14.46064429 43.69096643 -12 40 C-11.41654524 37.04253508 -11.41654524 37.04253508 -12 34 C-16.17551481 29.87193422 -20.89847295 28.54576027 -26.38476562 27.02148438 C-31.36997845 25.51832883 -34.29444237 23.52670718 -38 20 C-40.00602532 15.98794936 -39.60713599 11.3521431 -39 7 C-36.79198031 2.21741189 -33.0502179 -0.26578588 -28.375 -2.4375 C-18.31824598 -5.92042381 -9.52070317 -4.19810534 0 0 Z " fill="#1C1F20" transform="translate(356,336)"/>
<path d="M0 0 C-0.33 1.98 -0.66 3.96 -1 6 C-3.71108863 5.5215726 -6.11995142 4.95257735 -8.6875 3.9375 C-14.40675335 2.31884339 -20.32577619 2.0742681 -25.9375 4.25 C-29.75870503 6.41126455 -29.75870503 6.41126455 -32 10 C-31.93461426 13.20390133 -31.83972648 15.17342851 -29.50390625 17.47265625 C-25.17603583 20.11258969 -20.33183755 21.57040429 -15.5546875 23.21875 C-10.73614797 24.98395755 -7.7537591 26.4271781 -5 31 C-3.43737367 36.62545478 -4.18438231 39.93188815 -7 45 C-10.82883884 49.95496791 -14.99992666 51.81995532 -21 53 C-30.50446429 54.06325521 -38.99620384 52.33586411 -47 47 C-46.67 45.35 -46.34 43.7 -46 42 C-44.515 41.505 -44.515 41.505 -43 41 C-41.28057843 41.95523421 -39.56099998 42.91678997 -37.9140625 43.9921875 C-32.54654471 46.81834993 -25.89661413 46.49282552 -20 46 C-15.8389014 44.46696367 -14.46064429 43.69096643 -12 40 C-11.41654524 37.04253508 -11.41654524 37.04253508 -12 34 C-16.17551481 29.87193422 -20.89847295 28.54576027 -26.38476562 27.02148438 C-31.36997845 25.51832883 -34.29444237 23.52670718 -38 20 C-40.00602532 15.98794936 -39.60713599 11.3521431 -39 7 C-36.79198031 2.21741189 -33.0502179 -0.26578588 -28.375 -2.4375 C-18.31824598 -5.92042381 -9.52070317 -4.19810534 0 0 Z " fill="#1C1F20" transform="translate(247,336)"/>
<path d="M0 0 C15.18 0 30.36 0 46 0 C45.67 1.65 45.34 3.3 45 5 C38.73 5.33 32.46 5.66 26 6 C25.7326001 7.37776611 25.4652002 8.75553223 25.18969727 10.17504883 C24.19838379 15.27993385 23.20444949 20.38430563 22.2097168 25.48852539 C21.77931192 27.69899781 21.34962079 29.90960933 20.9206543 32.12036133 C20.30444304 35.29545216 19.68567843 38.4700362 19.06640625 41.64453125 C18.87470352 42.63524124 18.68300079 43.62595123 18.48548889 44.64668274 C18.30537766 45.56741074 18.12526642 46.48813873 17.93969727 47.43676758 C17.78203384 48.2472908 17.62437042 49.05781403 17.46192932 49.89289856 C17 52 17 52 16 55 C13.69 55 11.38 55 9 55 C13.72361563 28.09288576 13.72361563 28.09288576 16.25 15.375 C16.41274414 14.54774414 16.57548828 13.72048828 16.74316406 12.86816406 C17.87575605 7.2484879 17.87575605 7.2484879 19 5 C12.73 5 6.46 5 0 5 C0 3.35 0 1.7 0 0 Z " fill="#1C1F20" transform="translate(56,333)"/>
<path d="M0 0 C1.93166016 0.01740234 1.93166016 0.01740234 3.90234375 0.03515625 C5.19269531 0.04417969 6.48304688 0.05320312 7.8125 0.0625 C8.81152344 0.07410156 9.81054688 0.08570313 10.83984375 0.09765625 C10.79859375 1.16113281 10.75734375 2.22460938 10.71484375 3.3203125 C10.83221287 6.86706052 11.14821532 8.52194311 12.83984375 11.53515625 C13.21109375 12.21449219 13.58234375 12.89382813 13.96484375 13.59375 C14.39796875 14.33818359 14.39796875 14.33818359 14.83984375 15.09765625 C14.83984375 14.76765625 14.83984375 14.43765625 14.83984375 14.09765625 C21.76984375 14.09765625 28.69984375 14.09765625 35.83984375 14.09765625 C33.53329313 19.86403281 30.90754807 22.25703366 25.65234375 25.41015625 C23.83984375 26.09765625 23.83984375 26.09765625 20.83984375 26.09765625 C20.17984375 25.10765625 19.51984375 24.11765625 18.83984375 23.09765625 C18.83984375 24.41765625 18.83984375 25.73765625 18.83984375 27.09765625 C11.20809102 26.85147068 5.91448916 24.77973855 -0.16015625 20.09765625 C-4.80069611 14.69926537 -4.65037179 7.94625572 -4.16015625 1.09765625 C-3.16015625 0.09765625 -3.16015625 0.09765625 0 0 Z " fill="#212324" transform="translate(503.16015625,353.90234375)"/>
<path d="M0 0 C2.31 0 4.62 0 7 0 C5.55186634 10.40088709 3.55883815 20.66958538 1.48608398 30.96069336 C0.93102453 33.71968714 0.38225473 36.47988432 -0.16601562 39.24023438 C-0.51785851 40.99747009 -0.87005855 42.75463434 -1.22265625 44.51171875 C-1.38621109 45.33556564 -1.54976593 46.15941254 -1.71827698 47.00822449 C-2.88499116 52.76998233 -2.88499116 52.76998233 -4 55 C-6.31 55 -8.62 55 -11 55 C-7.37 36.85 -3.74 18.7 0 0 Z " fill="#1C1F20" transform="translate(294,333)"/>
<path d="M0 0 C2.31 0 4.62 0 7 0 C5.55186634 10.40088709 3.55883815 20.66958538 1.48608398 30.96069336 C0.93102453 33.71968714 0.38225473 36.47988432 -0.16601562 39.24023438 C-0.51785851 40.99747009 -0.87005855 42.75463434 -1.22265625 44.51171875 C-1.38621109 45.33556564 -1.54976593 46.15941254 -1.71827698 47.00822449 C-2.88499116 52.76998233 -2.88499116 52.76998233 -4 55 C-6.31 55 -8.62 55 -11 55 C-7.37 36.85 -3.74 18.7 0 0 Z " fill="#1C1F20" transform="translate(185,333)"/>
<path d="M0 0 C1.93166016 0.01740234 1.93166016 0.01740234 3.90234375 0.03515625 C5.19269531 0.04417969 6.48304688 0.05320312 7.8125 0.0625 C8.81152344 0.07410156 9.81054688 0.08570313 10.83984375 0.09765625 C10.83984375 3.06765625 10.83984375 6.03765625 10.83984375 9.09765625 C9.51984375 9.42765625 8.19984375 9.75765625 6.83984375 10.09765625 C5.6896385 12.34509381 5.6896385 12.34509381 4.83984375 15.09765625 C3.85502353 17.1051744 2.85831861 19.10700084 1.83984375 21.09765625 C-2.90505421 16.96107854 -2.90505421 16.96107854 -3.97265625 13.34765625 C-4.44766016 5.11425506 -4.44766016 5.11425506 -4.16015625 1.09765625 C-3.16015625 0.09765625 -3.16015625 0.09765625 0 0 Z " fill="#2A2D2E" transform="translate(503.16015625,353.90234375)"/>
<path d="M0 0 C2.78377547 2.40416972 4.01765406 4.44844158 5 8 C5.20798026 11.34328264 5.26603224 14.65913004 5 18 C4 19 4 19 0.83984375 19.09765625 C-0.44792969 19.08605469 -1.73570312 19.07445312 -3.0625 19.0625 C-4.35285156 19.05347656 -5.64320313 19.04445313 -6.97265625 19.03515625 C-7.97167969 19.02355469 -8.97070312 19.01195312 -10 19 C-9.44804697 15.50025389 -8.63836194 13.0159721 -6.6875 10.0625 C-6.2440625 9.38316406 -5.800625 8.70382812 -5.34375 8.00390625 C-4.67859375 7.01197266 -4.67859375 7.01197266 -4 6 C-3.5978125 5.39027344 -3.195625 4.78054688 -2.78125 4.15234375 C-1.86172139 2.76319875 -0.93203152 1.38078743 0 0 Z " fill="#212425" transform="translate(536,347)"/>
<path d="M0 0 C10.16236162 -0.19926199 10.16236162 -0.19926199 14 1 C14.33 1.66 14.66 2.32 15 3 C15.99 3.33 16.98 3.66 18 4 C17.41892368 7.7602985 16.34800504 10.53035032 14.4375 13.8125 C13.98246094 14.60269531 13.52742187 15.39289063 13.05859375 16.20703125 C12.70925781 16.79871094 12.35992188 17.39039063 12 18 C8.57772237 16.85924079 8.38821966 16.4452807 6.73828125 13.4375 C6.34189453 12.72335937 5.94550781 12.00921875 5.53710938 11.2734375 C4.93092773 10.14808594 4.93092773 10.14808594 4.3125 9 C3.89677734 8.24976563 3.48105469 7.49953125 3.05273438 6.7265625 C0 1.17249076 0 1.17249076 0 0 Z " fill="#202324" transform="translate(517,339)"/>
<path d="M0 0 C4.28855516 1.62965096 5.21570112 4.08846477 7.2421875 8.05859375 C8.125 10.1875 8.125 10.1875 8.125 12.1875 C1.195 12.1875 -5.735 12.1875 -12.875 12.1875 C-10.55663687 6.39159218 -6.82141915 0.44487516 0 0 Z " fill="#1F2223" transform="translate(513.875,339.8125)"/>
<path d="M0 0 C6.92407809 -0.65943601 6.92407809 -0.65943601 9.9375 1.1875 C11.35776381 3.61030297 11.93255665 5.16737925 12 8 C10.5625 10.8125 10.5625 10.8125 8 13 C4.93734034 13.76873988 3.25294897 13.51634111 0 13 C-2.0625 10.8125 -2.0625 10.8125 -3 8 C-2.74756206 4.4658688 -1.99789249 2.99683874 0 0 Z " fill="#F5F5F5" transform="translate(516,353)"/>
<path d="M0 0 C0 3 0 3 -3 8 C3.93 8 10.86 8 18 8 C17.34 6.02 16.68 4.04 16 2 C18.87402727 4.5958956 20.24432948 6.21369298 21 10 C20.37351562 9.97679687 19.74703125 9.95359375 19.1015625 9.9296875 C18.28429687 9.91164063 17.46703125 9.89359375 16.625 9.875 C15.40683594 9.84019531 15.40683594 9.84019531 14.1640625 9.8046875 C11.78657757 9.78629949 11.78657757 9.78629949 10 12 C10 11.34 10 10.68 10 10 C5.38 10.33 0.76 10.66 -4 11 C-4 15.29 -4 19.58 -4 24 C-6.98758433 19.51862351 -6.60143242 15.2553738 -6 10 C-4.65578554 6.0561255 -2.94647727 2.94647727 0 0 Z " fill="#606263" transform="translate(504,344)"/>
<path d="M0 0 C4.41692874 4.06822384 6.77545334 7.0009701 7.23046875 13.078125 C7.20919922 14.64820313 7.20919922 14.64820313 7.1875 16.25 C7.18105469 17.30703125 7.17460938 18.3640625 7.16796875 19.453125 C7 22 7 22 6 23 C4.14630389 23.08737645 2.28932459 23.10698153 0.43359375 23.09765625 C-0.69111328 23.09443359 -1.81582031 23.09121094 -2.97460938 23.08789062 C-4.15861328 23.07951172 -5.34261719 23.07113281 -6.5625 23.0625 C-7.75037109 23.05798828 -8.93824219 23.05347656 -10.16210938 23.04882812 C-13.10812226 23.03699675 -16.05403681 23.02051287 -19 23 C-19 22.67 -19 22.34 -19 22 C-17.72125 21.855625 -16.4425 21.71125 -15.125 21.5625 C-12.74307106 21.29357254 -11.15547309 21.07773654 -9 20 C-9 20.66 -9 21.32 -9 22 C-4.38 21.67 0.24 21.34 5 21 C5.2745039 14.32040507 5.09485864 9.93181238 2 4 C-1.21880117 7.7935871 -3.6163187 11.65829477 -6 16 C-6.66 15.01 -7.32 14.02 -8 13 C-7.34 13 -6.68 13 -6 13 C-5.7525 12.154375 -5.505 11.30875 -5.25 10.4375 C-3.86026373 6.61572526 -2.08879162 3.48131937 0 0 Z " fill="#717374" transform="translate(535,344)"/>
<path d="M0 0 C1.5 1.375 1.5 1.375 3 3 C3 3.66 3 4.32 3 5 C5.97 4.01 8.94 3.02 12 2 C7.90068078 6.09931922 4.89497656 7.12113985 -0.8125 7.375 C-6.11478013 7.29550555 -9.47782775 5.67980578 -14 3 C-13.34 2.67 -12.68 2.34 -12 2 C-10.65313898 2.63889561 -9.32172742 3.3106098 -8 4 C-6.42841122 4.42151885 -4.84370918 4.7968834 -3.25 5.125 C-2.45078125 5.29257812 -1.6515625 5.46015625 -0.828125 5.6328125 C-0.22484375 5.75398438 0.3784375 5.87515625 1 6 C0.67 4.02 0.34 2.04 0 0 Z " fill="#565859" transform="translate(521,375)"/>
<path d="M0 0 C1.8871875 0.00773437 1.8871875 0.00773437 3.8125 0.015625 C5.070625 0.01046875 6.32875 0.0053125 7.625 0 C10.8125 0.265625 10.8125 0.265625 12.8125 2.265625 C9.1825 2.265625 5.5525 2.265625 1.8125 2.265625 C2.4725 4.245625 3.1325 6.225625 3.8125 8.265625 C2.3125 6.890625 2.3125 6.890625 0.8125 5.265625 C0.8125 4.605625 0.8125 3.945625 0.8125 3.265625 C-2.1575 2.770625 -2.1575 2.770625 -5.1875 2.265625 C-3.1875 0.265625 -3.1875 0.265625 0 0 Z " fill="#5C5E5F" transform="translate(516.1875,337.734375)"/>
<path d="M0 0 C0.66 0.33 1.32 0.66 2 1 C-1.63 4.63 -5.26 8.26 -9 12 C-9 8.26071501 -8.08040398 7.59097747 -5.625 4.875 C-4.99851562 4.17117188 -4.37203125 3.46734375 -3.7265625 2.7421875 C-2 1 -2 1 0 0 Z " fill="#555758" transform="translate(505,335)"/>
</svg>
