<?xml version="1.0" encoding="UTF-8"?>
<svg version="1.1" xmlns="http://www.w3.org/2000/svg" width="750" height="750">
<path d="M0 0 C247.5 0 495 0 750 0 C750 247.5 750 495 750 750 C502.5 750 255 750 0 750 C0 502.5 0 255 0 0 Z " fill="#080909" transform="translate(0,0)"/>
<path d="M0 0 C1.093125 0.556875 2.18625 1.11375 3.3125 1.6875 C9.78443791 7.25637681 14.41171189 14.54807414 15.3359375 23.11328125 C15.4648845 33.67404094 13.14252392 40.46654684 5.91796875 48.21484375 C-2.59782246 56.14094677 -11.80049829 58.60924557 -23.2421875 58.34765625 C-32.98898891 57.44592514 -41.21720285 53.32605473 -47.75390625 46.046875 C-54.09009131 38.04648712 -54.89227567 29.82685505 -54.23828125 19.91650391 C-53.35982875 12.85108163 -48.98857264 7.17490407 -43.890625 2.46484375 C-30.85865588 -7.63223976 -14.074786 -7.60260094 0 0 Z " fill="#DFDFDF" transform="translate(538,341)"/>
<path d="M0 0 C6.26206481 -0.1018729 12.52391392 -0.17166281 18.78662109 -0.21972656 C20.91463202 -0.23977468 23.04258832 -0.26702054 25.17041016 -0.30175781 C28.23874433 -0.35057548 31.30634673 -0.37303726 34.375 -0.390625 C35.78954468 -0.42159271 35.78954468 -0.42159271 37.23266602 -0.45318604 C43.32752858 -0.45523129 47.92357926 0.505115 53 4 C57.56844725 8.8027266 58.4356107 12.91310619 58.33203125 19.36328125 C57.765636 23.86112589 56.04511571 26.71335535 53 30 C45.40240845 35.55807414 35.85132423 34.45195904 26.9375 34.25 C25.38869502 34.22990039 23.8398648 34.21165574 22.29101562 34.1953125 C18.52671183 34.15159863 14.76363937 34.08276632 11 34 C11.10948106 38.1255669 11.24020225 42.25018878 11.375 46.375 C11.4059375 47.550625 11.436875 48.72625 11.46875 49.9375 C11.50742187 51.05898438 11.54609375 52.18046875 11.5859375 53.3359375 C11.6173584 54.37282715 11.6487793 55.4097168 11.68115234 56.47802734 C11.75954472 59.16809835 11.75954472 59.16809835 14 61 C9.38 61 4.76 61 0 61 C0.66 60.34 1.32 59.68 2 59 C2.33185344 56.45240753 2.33185344 56.45240753 2.31884766 53.44873047 C2.33871735 52.28767792 2.35858704 51.12662537 2.37905884 49.9303894 C2.39061005 48.67203278 2.40216125 47.41367615 2.4140625 46.1171875 C2.43342865 44.83264679 2.4527948 43.54810608 2.4727478 42.22463989 C2.52413941 38.80852465 2.56372714 35.39236993 2.60089111 31.97607422 C2.64088698 28.49046001 2.69199938 25.00501097 2.7421875 21.51953125 C2.83902975 14.6798081 2.9234078 7.83997904 3 1 C2.01 0.67 1.02 0.34 0 0 Z " fill="#FCFCFC" transform="translate(565,337)"/>
<path d="M0 0 C6.04647512 -0.12465773 12.09218366 -0.21483444 18.13964844 -0.2746582 C20.19186452 -0.2996263 22.2439933 -0.3336132 24.29589844 -0.37719727 C49.47437809 -0.8981736 49.47437809 -0.8981736 57.99829102 6.80615234 C59.5236891 8.45797253 60.77219093 10.11937695 62 12 C62.598125 12.886875 63.19625 13.77375 63.8125 14.6875 C66.35140974 19.63169266 66.18310662 24.43599661 66.1875 29.875 C66.19974609 30.66519531 66.21199219 31.45539063 66.22460938 32.26953125 C66.24904438 42.05982381 62.48407832 49.39473037 55.6875 56.375 C48.60234798 60.65904541 41.63484271 61.43054511 33.49609375 61.29296875 C32.05025658 61.28660149 32.05025658 61.28660149 30.57521057 61.28010559 C27.52900985 61.26345681 24.48349712 61.22583111 21.4375 61.1875 C19.35873359 61.1724353 17.27995669 61.15875004 15.20117188 61.14648438 C10.13385384 61.11359864 5.06704313 61.06191324 0 61 C0.99 60.505 0.99 60.505 2 60 C2 40.53 2 21.06 2 1 C1.34 0.67 0.68 0.34 0 0 Z M11 7 C11 22.51 11 38.02 11 54 C18.425 54.12375 18.425 54.12375 26 54.25 C27.54558594 54.28641602 29.09117187 54.32283203 30.68359375 54.36035156 C38.08914283 54.42007373 43.69389535 54.28939222 50 50 C55.93404113 44.06595887 58.15037824 38.84625307 58.4375 30.625 C58.2484202 23.76297892 57.04538806 18.34848355 52.3515625 13.1875 C46.84885642 8.18940888 42.20579476 6.74316218 34.73046875 6.8046875 C33.48418701 6.80968262 32.23790527 6.81467773 30.95385742 6.81982422 C29.38095947 6.83803223 27.80806152 6.85624023 26.1875 6.875 C21.175625 6.91625 16.16375 6.9575 11 7 Z " fill="#F8F8F8" transform="translate(407,337)"/>
<path d="M0 0 C0.33 0 0.66 0 1 0 C1 4.29 1 8.58 1 13 C0.34 12.34 -0.32 11.68 -1 11 C-2.97760261 10.67043065 -2.97760261 10.67043065 -5.26611328 10.68115234 C-6.14687531 10.66128265 -7.02763733 10.64141296 -7.93508911 10.62094116 C-8.88721283 10.60938995 -9.83933655 10.59783875 -10.8203125 10.5859375 C-11.79410858 10.56657135 -12.76790466 10.5472052 -13.77120972 10.5272522 C-16.88905003 10.46735442 -20.00692706 10.42103029 -23.125 10.375 C-25.23569341 10.33682961 -27.34637108 10.29777844 -29.45703125 10.2578125 C-34.63794012 10.15998259 -39.81867641 10.08049481 -45 10 C-45 16.6 -45 23.2 -45 30 C-40.62121216 29.90314672 -36.24339023 29.80047575 -31.86523438 29.68261719 C-30.37541111 29.64430002 -28.88549446 29.60945192 -27.39550781 29.578125 C-25.25551952 29.53253271 -23.11617564 29.47453126 -20.9765625 29.4140625 C-19.68830566 29.3826416 -18.40004883 29.3512207 -17.07275391 29.31884766 C-13.89518495 29.31541732 -13.89518495 29.31541732 -12 27 C-12 31.29 -12 35.58 -12 40 C-12.66 39.34 -13.32 38.68 -14 38 C-17.20538403 37.62653332 -17.20538403 37.62653332 -20.9765625 37.5859375 C-21.66181 37.56657135 -22.3470575 37.5472052 -23.05307007 37.5272522 C-25.24358644 37.46743169 -27.4341553 37.42106244 -29.625 37.375 C-31.10939802 37.33682237 -32.59377384 37.29777076 -34.078125 37.2578125 C-37.718635 37.16008069 -41.35890615 37.08053642 -45 37 C-45 43.6 -45 50.2 -45 57 C-38.76996587 56.90321288 -32.5406207 56.80057613 -26.31103516 56.68261719 C-24.1906531 56.64427158 -22.07020474 56.60942867 -19.94970703 56.578125 C-16.90633402 56.53259534 -13.86341968 56.47458161 -10.8203125 56.4140625 C-9.39212692 56.39673569 -9.39212692 56.39673569 -7.93508911 56.37905884 C-7.05432709 56.35918915 -6.17356506 56.33931946 -5.26611328 56.31884766 C-4.48889923 56.30552399 -3.71168518 56.29220032 -2.91091919 56.2784729 C-0.7611053 56.15960424 -0.7611053 56.15960424 1 54 C1 58.29 1 62.58 1 67 C0.01 66.01 0.01 66.01 -1 65 C-3.46620164 64.66840715 -3.46620164 64.66840715 -6.36767578 64.68115234 C-7.48868683 64.66128265 -8.60969788 64.64141296 -9.76467896 64.62094116 C-10.97928802 64.60938995 -12.19389709 64.59783875 -13.4453125 64.5859375 C-14.68546112 64.56657135 -15.92560974 64.5472052 -17.20333862 64.5272522 C-20.50111779 64.4775119 -23.79886139 64.43627523 -27.09680176 64.39910889 C-30.46177334 64.35910998 -33.82657392 64.30799897 -37.19140625 64.2578125 C-43.79416107 64.16160213 -50.39699011 64.07659617 -57 64 C-55.515 63.505 -55.515 63.505 -54 63 C-54 43.53 -54 24.06 -54 4 C-54.99 3.67 -55.98 3.34 -57 3 C-38.52 2.67 -20.04 2.34 -1 2 C-0.67 1.34 -0.34 0.68 0 0 Z " fill="#FBFBFB" transform="translate(691,334)"/>
<path d="M0 0 C1.093125 0.556875 2.18625 1.11375 3.3125 1.6875 C9.78443791 7.25637681 14.41171189 14.54807414 15.3359375 23.11328125 C15.46498772 33.68249443 13.13242021 40.43930119 5.93359375 48.2109375 C2.9152394 51.00367748 -0.38034035 53.07449033 -4 55 C-4.60972656 55.37125 -5.21945312 55.7425 -5.84765625 56.125 C-8.73147617 57.29736962 -11.14993648 57.19239269 -14.25 57.125 C-15.32765625 57.10695313 -16.4053125 57.08890625 -17.515625 57.0703125 C-18.33546875 57.04710937 -19.1553125 57.02390625 -20 57 C-19.505 56.01 -19.505 56.01 -19 55 C-16.99609375 54.54296875 -16.99609375 54.54296875 -14.4375 54.1875 C-7.89316392 52.98910942 -3.25766762 50.37970371 1.3125 45.5625 C6.525122 37.64703696 8.22026012 30.07750871 6.609375 20.734375 C4.61338547 13.41574673 0.11155579 7.57058614 -6.32421875 3.546875 C-14.36519791 -0.13048101 -22.98994758 -0.35481352 -31.3125 2.5625 C-38.43283646 5.83122589 -43.46423563 11.03496556 -46.3359375 18.3515625 C-48.47504953 26.88284458 -47.99981456 35.23799471 -43.55078125 42.8828125 C-39.44380075 48.48982367 -34.05734721 51.7858974 -28 55 C-28 55.66 -28 56.32 -28 57 C-35.8983152 56.5842992 -42.68550491 51.76644388 -47.9375 46.125 C-54.69787133 37.61075874 -55.10334068 28.5395305 -54 18 C-51.76175261 10.33027226 -46.77835861 3.95406279 -39.984375 -0.24609375 C-26.67166685 -7.18191307 -13.1325353 -7.09363718 0 0 Z " fill="#F7F7F7" transform="translate(538,341)"/>
<path d="M0 0 C1.98 0 3.96 0 6 0 C5.27630988 8.25006737 3.65433298 15.72833509 2 24 C13.22 24 24.44 24 36 24 C36.33 20.37 36.66 16.74 37 13 C37.46328165 10.59237569 37.97387669 8.19258557 38.5625 5.8125 C38.83191406 4.70519531 39.10132813 3.59789062 39.37890625 2.45703125 C39.58386719 1.64621094 39.78882813 0.83539063 40 0 C41.98 0 43.96 0 46 0 C43.50092838 13.70391238 40.96182284 27.39889172 38.25 41.0625 C37.93446167 42.66629517 37.93446167 42.66629517 37.61254883 44.30249023 C37.41556396 45.28677002 37.2185791 46.2710498 37.015625 47.28515625 C36.84321289 48.15019775 36.67080078 49.01523926 36.49316406 49.90649414 C36 52 36 52 35 54 C33.35 54 31.7 54 30 54 C29.66445413 48.51941751 30.35211755 43.49549542 31.4375 38.125 C31.57196533 37.45847412 31.70643066 36.79194824 31.8449707 36.10522461 C32.85719415 31.28561171 32.85719415 31.28561171 34 29 C22.78 29 11.56 29 0 29 C-0.33 32.3 -0.66 35.6 -1 39 C-1.48085616 41.71571614 -1.99804265 44.42542138 -2.5625 47.125 C-2.70107422 47.7953125 -2.83964844 48.465625 -2.98242188 49.15625 C-3.31706776 50.77178185 -3.65784104 52.38604266 -4 54 C-5.98 54 -7.96 54 -10 54 C-9.43734585 47.01110092 -8.37694074 40.25618394 -6.93359375 33.3984375 C-6.63606956 31.95472275 -6.63606956 31.95472275 -6.33253479 30.48184204 C-5.70561342 27.44522011 -5.07168459 24.41011241 -4.4375 21.375 C-4.00799696 19.30087781 -3.57895617 17.22665985 -3.15039062 15.15234375 C-2.10559667 10.10044041 -1.054521 5.0498815 0 0 Z " fill="#F2F2F2" transform="translate(120,339)"/>
<path d="M0 0 C4.44906818 -0.11519452 8.89291016 -0.21458347 13.34228516 -0.2746582 C14.85353174 -0.29971095 16.36465824 -0.33376377 17.87548828 -0.37719727 C20.05531501 -0.4382669 22.23353262 -0.46629916 24.4140625 -0.48828125 C26.37786865 -0.52755737 26.37786865 -0.52755737 28.38134766 -0.56762695 C33.11650141 0.175136 34.67060827 1.62070372 38 5 C39.03919542 8.11225705 38.77593503 10.82728788 38 14 C35.32965479 17.56046028 33.33745413 19.26500587 29 20 C26.75646063 20.08173345 24.51063108 20.10750277 22.265625 20.09765625 C20.97011719 20.09443359 19.67460938 20.09121094 18.33984375 20.08789062 C16.97656183 20.07953598 15.61328058 20.07107104 14.25 20.0625 C12.87109535 20.05748168 11.49218896 20.05291935 10.11328125 20.04882812 C6.74216882 20.03704102 3.3710789 20.01910561 0 20 C0 13.4 0 6.8 0 0 Z " fill="#111312" transform="translate(576,344)"/>
<path d="M0 0 C1.145896 -0.00942627 1.145896 -0.00942627 2.31494141 -0.01904297 C7.5105387 0.09681469 11.22600466 1.18166811 15.875 3.5 C15.545 5.15 15.215 6.8 14.875 8.5 C9 7.625 9 7.625 7.875 6.5 C5.12822785 6.29168575 2.43778403 6.17529613 -0.3125 6.125 C-1.06853516 6.08761719 -1.82457031 6.05023438 -2.60351562 6.01171875 C-6.69098609 5.94790742 -9.35860357 6.23570093 -12.640625 8.796875 C-15.44489837 11.34549377 -15.44489837 11.34549377 -15.6875 15.125 C-15.08739811 18.72561132 -14.82600186 19.31172029 -12.125 21.5 C-10.2029392 22.44930566 -10.2029392 22.44930566 -8.0703125 23.1484375 C-7.29042969 23.43203125 -6.51054687 23.715625 -5.70703125 24.0078125 C-4.07840325 24.58262238 -2.4482006 25.15299144 -0.81640625 25.71875 C4.25797833 27.57462047 7.35773092 29.37582958 10.875 33.5 C11.205 33.83 11.535 34.16 11.875 34.5 C12.47503809 40.38037326 11.38402519 44.7940187 7.875 49.5 C0.65615549 55.3286726 -8.31712794 55.22723095 -17.14990234 54.74414062 C-21.63160247 54.19016039 -25.54308414 52.1803452 -29.125 49.5 C-29.455 48.84 -29.785 48.18 -30.125 47.5 C-29.1875 45.375 -29.1875 45.375 -28.125 43.5 C-27.609375 43.768125 -27.09375 44.03625 -26.5625 44.3125 C-25.758125 44.704375 -24.95375 45.09625 -24.125 45.5 C-23.17625 46.03625 -22.2275 46.5725 -21.25 47.125 C-15.63294539 49.51316205 -9.08235776 49.19764695 -3.125 48.5 C0.84033899 46.89888319 2.48360155 46.08709767 4.875 42.5 C5.35591949 38.51331993 5.35591949 38.51331993 3.8125 34.96484375 C0.51302942 32.47028434 -3.49260845 31.63384796 -7.41210938 30.48242188 C-12.663678 28.85806281 -16.87185596 26.52782964 -21 22.8125 C-22.81476191 19.08215607 -22.73321549 15.55948478 -22.125 11.5 C-19.98967484 6.67230833 -16.77781609 3.80187164 -12.15625 1.4140625 C-8.0739474 0.18305888 -4.24607251 0.02672655 0 0 Z " fill="#EEEEEE" transform="translate(340.125,338.5)"/>
<path d="M0 0 C0.78632813 -0.02900391 1.57265625 -0.05800781 2.3828125 -0.08789062 C8.17711914 -0.15045374 11.4521034 1.06044977 16.25 4.3125 C15.59 5.9625 14.93 7.6125 14.25 9.3125 C12.7340625 8.57 12.7340625 8.57 11.1875 7.8125 C4.86583982 5.43338058 -2.10993705 5.55406056 -8.75 6.3125 C-12.47703538 8.0660363 -12.47703538 8.0660363 -14.75 11.3125 C-14.8189472 12.68592831 -14.83467708 14.06252102 -14.8125 15.4375 C-14.791875 16.71625 -14.77125 17.995 -14.75 19.3125 C-9.15051986 22.91216581 -3.39714353 24.8795348 2.9453125 26.87109375 C6.69998432 28.50876976 8.71556884 30.10346978 11.25 33.3125 C12.42828288 37.77549327 12.24472233 42.30858666 10.17578125 46.4765625 C6.78381413 50.84430098 2.71644856 53.38221583 -2.75 54.3125 C-12.42770087 55.21724304 -20.40696086 54.92800712 -28.75 49.3125 C-28.75 45.3125 -28.75 45.3125 -27.75 43.3125 C-27.255 43.580625 -26.76 43.84875 -26.25 44.125 C-25.425 44.516875 -24.6 44.90875 -23.75 45.3125 C-22.63625 45.84875 -21.5225 46.385 -20.375 46.9375 C-13.94413524 49.29467787 -6.14396199 49.55342354 0.44921875 47.69140625 C2.3470552 46.77806317 2.3470552 46.77806317 4.25 44.3125 C5.01719225 41.54002596 5.15286999 39.22640015 5.25 36.3125 C1.41599689 33.33049758 -2.10210701 31.76930228 -6.75 30.3125 C-12.41881455 28.51421434 -16.1981409 26.60917319 -20.625 22.625 C-22.43549457 18.90342783 -22.37692274 15.36284353 -21.75 11.3125 C-19.36104306 6.44270316 -16.41669958 3.99336997 -11.75 1.3125 C-7.83611124 0.00787041 -4.08127024 0.04921146 0 0 Z " fill="#F0F0F0" transform="translate(232.75,338.6875)"/>
<path d="M0 0 C1.39456452 0.00667256 2.78911118 0.01863093 4.18359375 0.03515625 C4.89451172 0.03966797 5.60542969 0.04417969 6.33789062 0.04882812 C8.09899388 0.06064761 9.86005411 0.07858362 11.62109375 0.09765625 C11.26302083 2.01822917 10.90494792 3.93880208 10.546875 5.859375 C10.6615942 9.31906468 11.15797433 10.599845 13.62109375 13.09765625 C17.36026753 13.73790138 21.02927129 13.56475408 24.80859375 13.41015625 C25.84435547 13.38759766 26.88011719 13.36503906 27.94726562 13.34179688 C30.50665779 13.28282471 33.06315326 13.20058192 35.62109375 13.09765625 C34.18524864 16.93340826 32.92845749 19.15133041 29.80859375 21.84765625 C29.14214844 22.440625 28.47570312 23.03359375 27.7890625 23.64453125 C25.37575085 25.2621023 23.47913179 25.71857965 20.62109375 26.09765625 C19.63109375 24.77765625 18.64109375 23.45765625 17.62109375 22.09765625 C17.95109375 23.41765625 18.28109375 24.73765625 18.62109375 26.09765625 C12.57463329 26.72749588 8.44181295 26.19262762 3.4140625 22.66015625 C-0.56051092 19.19647571 -3.42410922 15.33427499 -4.37890625 10.09765625 C-4.46807824 8.53714649 -4.50907335 6.97320317 -4.50390625 5.41015625 C-4.50648438 4.62253906 -4.5090625 3.83492188 -4.51171875 3.0234375 C-4.27746386 -0.37325835 -3.51085002 0.10146965 0 0 Z " fill="#E6E6E6" transform="translate(501.37890625,362.90234375)"/>
<path d="M0 0 C14.52 0 29.04 0 44 0 C43.67 1.65 43.34 3.3 43 5 C36.73 5 30.46 5 24 5 C23.61714844 7.63548828 23.61714844 7.63548828 23.2265625 10.32421875 C21.86069227 19.20237522 20.11289649 28.0010137 18.375 36.8125 C18.04663503 38.48758318 17.71850846 40.16271312 17.390625 41.83789062 C16.59649106 45.89247007 15.79915596 49.94640754 15 54 C13.02 54 11.04 54 9 54 C9.54875198 47.38742702 10.47266735 40.98109795 11.84765625 34.4921875 C12.02380966 33.64069122 12.19996307 32.78919495 12.38145447 31.91189575 C12.93701075 29.23190717 13.49961805 26.55345844 14.0625 23.875 C14.44382985 22.04176447 14.82469332 20.20843186 15.20507812 18.375 C16.13048117 13.91532347 17.06543636 9.4578047 18 5 C11.73 5 5.46 5 -1 5 C-0.67 3.35 -0.34 1.7 0 0 Z " fill="#F2F2F2" transform="translate(62,339)"/>
<path d="M0 0 C5.98511371 0.34302035 10.75117306 0.82307843 16 4 C16 4.66 16 5.32 16 6 C16.66 6.33 17.32 6.66 18 7 C17.67 7.99 17.34 8.98 17 10 C17.33 9.34 17.66 8.68 18 8 C18.66 8 19.32 8 20 8 C23.29768187 14.1831535 23.2586761 19.01574534 23 26 C18.38 26 13.76 26 9 26 C9.0928125 24.85273438 9.185625 23.70546875 9.28125 22.5234375 C9.28125 17.34384774 7.18643002 13.9249015 4.5 9.625 C0 2.17905405 0 2.17905405 0 0 Z " fill="#EBEBEB" transform="translate(515,348)"/>
<path d="M0 0 C1.98 0 3.96 0 6 0 C3.50092838 13.70391238 0.96182284 27.39889172 -1.75 41.0625 C-1.96035889 42.13169678 -2.17071777 43.20089355 -2.38745117 44.30249023 C-2.58443604 45.28677002 -2.7814209 46.2710498 -2.984375 47.28515625 C-3.15678711 48.15019775 -3.32919922 49.01523926 -3.50683594 49.90649414 C-4 52 -4 52 -5 54 C-6.65 54 -8.3 54 -10 54 C-10.42954707 46.2681527 -8.82007755 39.03882946 -7.25 31.5 C-6.97548803 30.15483833 -6.70123775 28.80962322 -6.42724609 27.46435547 C-4.53429559 18.24309627 -2.4672764 9.0853825 0 0 Z " fill="#ECECEC" transform="translate(296,339)"/>
<path d="M0 0 C1.65 0 3.3 0 5 0 C4.43734585 6.98889908 3.37694074 13.74381606 1.93359375 20.6015625 C1.73524429 21.564039 1.53689484 22.5265155 1.33253479 23.51815796 C0.70561342 26.55477989 0.07168459 29.58988759 -0.5625 32.625 C-0.99200304 34.69912219 -1.42104383 36.77334015 -1.84960938 38.84765625 C-2.89440333 43.89955959 -3.945479 48.9501185 -5 54 C-6.98 54 -8.96 54 -11 54 C-10.27770583 46.01125242 -8.77842063 38.23067073 -7.1875 30.375 C-6.98782623 29.37953156 -6.98782623 29.37953156 -6.78411865 28.36395264 C-4.86396997 18.80942914 -2.7866271 9.34339674 0 0 Z " fill="#EFEFEF" transform="translate(189,339)"/>
<path d="M0 0 C1.98 3.96 3.96 7.92 6 12 C-0.93 12 -7.86 12 -15 12 C-12.73801917 6.34504792 -12.73801917 6.34504792 -9.5625 3.75 C-8.96566406 3.24984375 -8.36882812 2.7496875 -7.75390625 2.234375 C-5.13473829 0.39104076 -3.18738024 0 0 0 Z " fill="#EFEFEF" transform="translate(514,349)"/>
<path d="M0 0 C6.93 0 13.86 0 21 0 C17.5682243 5.71962617 17.5682243 5.71962617 14.625 8.25 C14.06039062 8.75015625 13.49578125 9.2503125 12.9140625 9.765625 C10.63672637 11.23427442 8.66265457 11.61569934 6 12 C4.99466333 10.37829621 3.99588093 8.75252763 3 7.125 C2.443125 6.22007812 1.88625 5.31515625 1.3125 4.3828125 C0 2 0 2 0 0 Z " fill="#EFEFEF" transform="translate(516,377)"/>
<path d="M0 0 C8.23992322 -0.621881 8.23992322 -0.621881 11.0625 1.6875 C12.53860126 5.32854979 12.53860126 7.67145021 11.0625 11.3125 C7.75427036 14.01923334 4.11069817 13.31024137 0 13 C-2.3015838 8.99647875 -1.92064486 6.5195293 -1 2 C-0.67 1.34 -0.34 0.68 0 0 Z " fill="#272A2B" transform="translate(513,362)"/>
<path d="M0 0 C-0.66 0.33 -1.32 0.66 -2 1 C-3.34254191 0.3520776 -4.67427339 -0.31833206 -6 -1 C-7.73813388 -1.42663286 -9.48988665 -1.80076859 -11.25 -2.125 C-12.8175 -2.41375 -14.385 -2.7025 -16 -3 C-13.69 1.62 -11.38 6.24 -9 11 C-20.88 11.99 -20.88 11.99 -33 13 C-33 17.29 -33 21.58 -33 26 C-35.22698735 22.65951897 -35.2711921 21.46714419 -35.25 17.5625 C-35.25515625 16.61503906 -35.2603125 15.66757812 -35.265625 14.69140625 C-34.99748089 11.97447547 -34.38531142 10.32534417 -33 8 C-32.67 8.66 -32.34 9.32 -32 10 C-22.1 9.505 -22.1 9.505 -12 9 C-13.2375 6.834375 -13.2375 6.834375 -14.5 4.625 C-17 0.25 -17 0.25 -17 -2 C-18.98 -1.67 -20.96 -1.34 -23 -1 C-22 -3 -22 -3 -20.234375 -3.60546875 C-12.36528127 -4.99494159 -6.85655989 -4.0631466 0 0 Z " fill="#B3B3B3" transform="translate(531,351)"/>
<path d="M0 0 C2 1 2 1 3.125 4.125 C4.44641723 9.9769906 4.64850392 14.53746066 2 20 C1.67 19.34 1.34 18.68 1 18 C-6.59 18.33 -14.18 18.66 -22 19 C-22 18.34 -22 17.68 -22 17 C-20.72125 16.87625 -19.4425 16.7525 -18.125 16.625 C-14.65209064 16.30957601 -14.65209064 16.30957601 -12 14 C-12 14.66 -12 15.32 -12 16 C-7.38 16 -2.76 16 2 16 C1.855625 14.288125 1.71125 12.57625 1.5625 10.8125 C1.48128906 9.84957031 1.40007813 8.88664062 1.31640625 7.89453125 C1.02333849 5.21350398 0.57296246 2.6337014 0 0 Z " fill="#C3C3C3" transform="translate(536,358)"/>
<path d="M0 0 C1.70840281 1.63412443 2.93453047 2.86906094 4 5 C5.65 5 7.3 5 9 5 C6.04463456 7.95536544 3.44497807 8.15448947 -0.5625 8.1875 C-1.74005859 8.20876953 -1.74005859 8.20876953 -2.94140625 8.23046875 C-5 8 -5 8 -7 6 C-4.03 6 -1.06 6 2 6 C1.34 4.02 0.68 2.04 0 0 Z " fill="#B9BABA" transform="translate(518,383)"/>
<path d="M0 0 C0.66 0.66 1.32 1.32 2 2 C5.12196336 2.46486718 5.12196336 2.46486718 8.625 2.625 C9.81351563 2.69976562 11.00203125 2.77453125 12.2265625 2.8515625 C13.14179687 2.90054687 14.05703125 2.94953125 15 3 C14.67 3.99 14.34 4.98 14 6 C14 5.34 14 4.68 14 4 C6.41 4.33 -1.18 4.66 -9 5 C-9 4.34 -9 3.68 -9 3 C-5.92382812 2.70703125 -5.92382812 2.70703125 -2.84765625 2.4140625 C-2.23792969 2.27742188 -1.62820313 2.14078125 -1 2 C-0.67 1.34 -0.34 0.68 0 0 Z " fill="#888989" transform="translate(523,372)"/>
<path d="M0 0 C2.33294775 -0.04241723 4.66702567 -0.04092937 7 0 C7.33 0.33 7.66 0.66 8 1 C9.34747084 1.23075082 10.70377565 1.41153063 12.0625 1.5625 C13.361875 1.706875 14.66125 1.85125 16 2 C16 2.33 16 2.66 16 3 C11.05 3 6.1 3 1 3 C0.67 2.01 0.34 1.02 0 0 Z " fill="#CECECE" transform="translate(510,396)"/>
</svg>
