<?xml version="1.0" encoding="UTF-8"?>
<svg version="1.1" xmlns="http://www.w3.org/2000/svg" width="625" height="625">
<path d="M0 0 C12.75238901 10.03235036 21.12280054 22.90593457 24 39 C24.2955262 42.58783457 24.33389881 46.15127897 24.3125 49.75 C24.30512817 51.21034668 24.30512817 51.21034668 24.29760742 52.70019531 C24.02800605 69.2633976 18.28290189 82.44312358 6.75 94.31640625 C-10.64678 110.79316423 -31.08962554 114.76082835 -54.28857422 114.13183594 C-70.28723499 113.35394319 -84.75982073 107.1969061 -97 97 C-97.71800781 96.40703125 -98.43601563 95.8140625 -99.17578125 95.203125 C-109.03379306 86.24477641 -116.26862148 71.95073111 -117.16113281 58.58740234 C-117.53509102 36.31079889 -117.53509102 36.31079889 -114 28 C-113.58621094 27.02160156 -113.17242187 26.04320312 -112.74609375 25.03515625 C-104.66899734 7.58246564 -91.39037198 -2.73091392 -74 -10 C-49.72568875 -18.52245794 -20.99224142 -14.91037708 0 0 Z " fill="#2A2D2D" transform="translate(297,212)"/>
<path d="M0 0 C11.06698676 -0.09322906 22.13387805 -0.16403096 33.2011795 -0.20724869 C38.34178166 -0.22800502 43.48211251 -0.25610061 48.62255859 -0.30175781 C53.59577551 -0.34564653 58.56873368 -0.36922665 63.54212952 -0.37950897 C65.42688563 -0.38682396 67.31162975 -0.401105 69.1962738 -0.42292023 C86.86519808 -0.61905922 105.53671474 1.00096596 119 14 C119 14.66 119 15.32 119 16 C119.66 16 120.32 16 121 16 C134.9195964 31.56985783 136.98204508 51.3105094 136.1953125 71.21484375 C135.09680028 86.87962795 128.60772927 101.37034649 117 112 C102.71616649 123.77668721 85.5365083 124.73858703 67.87109375 124.48828125 C65.89999805 124.47892793 63.92889053 124.47182378 61.95777893 124.46684265 C56.8300734 124.44797079 51.70310332 124.39904685 46.57568359 124.34332275 C41.31943707 124.29169671 36.06306891 124.26923707 30.80664062 124.24414062 C20.53744154 124.190904 10.26878249 124.10583899 0 124 C0.33 123.01 0.66 122.02 1 121 C2.485 120.505 2.485 120.505 4 120 C4 81.72 4 43.44 4 4 C2.68 3.67 1.36 3.34 0 3 C0 2.01 0 1.02 0 0 Z M23 16 C23 46.69 23 77.38 23 109 C37.23125 109.0928125 37.23125 109.0928125 51.75 109.1875 C54.7209668 109.21481201 57.69193359 109.24212402 60.75292969 109.27026367 C63.14257401 109.27903634 65.53222286 109.28667843 67.921875 109.29296875 C69.74066162 109.3159906 69.74066162 109.3159906 71.59619141 109.33947754 C85.30425165 109.3436315 95.34668357 106.60968237 105.75 97.625 C116.58306394 84.98642541 118.87601793 70.25499939 118 54 C116.30694265 41.23033018 111.19257067 30.13482527 101 22 C91.53183826 15.82911637 81.63128333 15.71815725 70.65625 15.8046875 C69.44549805 15.80670166 68.23474609 15.80871582 66.98730469 15.81079102 C62.49149758 15.8212058 57.99574473 15.84912818 53.5 15.875 C43.435 15.91625 33.37 15.9575 23 16 Z " fill="#1C1F20" transform="translate(24,200)"/>
<path d="M0 0 C0.99 0 1.98 0 3 0 C3 8.91 3 17.82 3 27 C2.01 27 1.02 27 0 27 C-0.99 25.02 -0.99 25.02 -2 23 C-31.37 22.67 -60.74 22.34 -91 22 C-91 34.54 -91 47.08 -91 60 C-70.21 59.67 -49.42 59.34 -28 59 C-27.34 57.35 -26.68 55.7 -26 54 C-25.01 54 -24.02 54 -23 54 C-23 63.24 -23 72.48 -23 82 C-23.99 82 -24.98 82 -26 82 C-26.66 80.35 -27.32 78.7 -28 77 C-48.79 76.67 -69.58 76.34 -91 76 C-91 88.87 -91 101.74 -91 115 C-61.3 114.67 -31.6 114.34 -1 114 C-0.67 112.35 -0.34 110.7 0 109 C0.99 109 1.98 109 3 109 C3 117.91 3 126.82 3 136 C2.01 136 1.02 136 0 136 C-0.103125 135.360625 -0.20625 134.72125 -0.3125 134.0625 C-0.539375 133.381875 -0.76625 132.70125 -1 132 C-3.84051929 131.05316024 -5.62812968 130.86508824 -8.57475281 130.84178162 C-9.5128479 130.8319928 -10.45094299 130.82220398 -11.41746521 130.81211853 C-12.95818443 130.80348534 -12.95818443 130.80348534 -14.5300293 130.79467773 C-16.15465591 130.77982834 -16.15465591 130.77982834 -17.81210327 130.76467896 C-21.3994527 130.73303945 -24.98681539 130.70829674 -28.57421875 130.68359375 C-31.05858203 130.66302635 -33.5429418 130.64202993 -36.02729797 130.62062073 C-41.90268324 130.57102732 -47.77808945 130.52576769 -53.65352517 130.48259836 C-60.99887146 130.42836417 -68.3441583 130.36741788 -75.68945312 130.30664062 C-88.79292909 130.19903214 -101.89644443 130.09740657 -115 130 C-114.67 129.01 -114.34 128.02 -114 127 C-112.68 127 -111.36 127 -110 127 C-110 88.06 -110 49.12 -110 9 C-111.65 9 -113.3 9 -115 9 C-115 8.01 -115 7.02 -115 6 C-58.57 5.505 -58.57 5.505 -1 5 C-0.67 3.35 -0.34 1.7 0 0 Z " fill="#1C1F20" transform="translate(601,194)"/>
<path d="M0 0 C11.1187995 -0.09307746 22.23750484 -0.16395544 33.35661602 -0.20724869 C38.52084397 -0.22803746 43.68480346 -0.25619427 48.84887695 -0.30175781 C53.84153153 -0.34552836 58.83392946 -0.36920244 63.82676125 -0.37950897 C65.72236986 -0.38684472 67.61796597 -0.4011682 69.51346397 -0.42292023 C83.62157184 -0.57823824 97.14096748 -0.31608089 108 10 C114.1606329 16.30064728 117.47501869 23.53962239 118.03515625 32.32421875 C117.88773023 43.54497675 114.90839764 52.91186604 107 61 C95.50592691 70.05126114 81.51172832 70.15644547 67.53125 70.09765625 C66.25519897 70.0962413 64.97914795 70.09482635 63.66442871 70.09336853 C60.29761844 70.08874011 56.93087793 70.07977971 53.56408691 70.06866455 C50.11825163 70.0583733 46.67240889 70.05379942 43.2265625 70.04882812 C36.48433615 70.03868639 29.74223068 70.01910582 23 70 C23.33 86.5 23.66 103 24 120 C25.32 120.66 26.64 121.32 28 122 C28 122.66 28 123.32 28 124 C18.76 124 9.52 124 0 124 C0.33 123.01 0.66 122.02 1 121 C1.99 121 2.98 121 4 121 C4 82.06 4 43.12 4 3 C2.68 3 1.36 3 0 3 C0 2.01 0 1.02 0 0 Z M23 16 C23 28.54 23 41.08 23 54 C30.67816072 54.06305059 38.35537439 54.12313883 46.03356934 54.15525055 C49.60973275 54.17103977 53.18568005 54.19211116 56.76171875 54.22631836 C60.21118793 54.25910534 63.66044857 54.27689332 67.11006165 54.28463173 C69.05533736 54.29280731 71.00053012 54.31619545 72.94567871 54.33988953 C81.06659931 54.34142216 86.82230823 53.59945266 93.8125 49.25 C98.19535092 44.74192477 99.18408401 40.54681165 99.375 34.4375 C99.20419184 28.76977472 97.79718896 25.2464862 94.25 20.8125 C87.05812186 15.01904261 79.60072432 15.60115188 70.75390625 15.70703125 C69.37386031 15.71263457 67.99380835 15.71690119 66.61375427 15.71989441 C63.00183298 15.73128544 59.39028025 15.76070195 55.77850342 15.79400635 C52.0848091 15.82483207 48.39105278 15.83859131 44.69726562 15.85351562 C37.46451947 15.88398212 30.23278213 15.94271484 23 16 Z " fill="#1C1F20" transform="translate(346,200)"/>
<path d="M0 0 C12.75238901 10.03235036 21.12280054 22.90593457 24 39 C24.2955262 42.58783457 24.33389881 46.15127897 24.3125 49.75 C24.30512817 51.21034668 24.30512817 51.21034668 24.29760742 52.70019531 C24.02800605 69.2633976 18.28290189 82.44312358 6.75 94.31640625 C-10.64678 110.79316423 -31.08962554 114.76082835 -54.28857422 114.13183594 C-70.28723499 113.35394319 -84.75982073 107.1969061 -97 97 C-97.71800781 96.40703125 -98.43601563 95.8140625 -99.17578125 95.203125 C-109.03379306 86.24477641 -116.26862148 71.95073111 -117.16113281 58.58740234 C-117.53509102 36.31079889 -117.53509102 36.31079889 -114 28 C-113.58621094 27.02160156 -113.17242187 26.04320312 -112.74609375 25.03515625 C-104.66899734 7.58246564 -91.39037198 -2.73091392 -74 -10 C-49.72568875 -18.52245794 -20.99224142 -14.91037708 0 0 Z M-80 9 C-80.62519531 9.47308594 -81.25039062 9.94617188 -81.89453125 10.43359375 C-92.14822692 18.67676086 -98.9052493 31.05801311 -101 44 C-102.24099014 60.67686756 -98.79412466 75.32235657 -88.3125 88.75 C-79.46263505 98.16176114 -67.05543747 106.06800091 -53.90039062 107.17700195 C-34.5569476 107.70520084 -20.70161285 103.85232956 -6.2578125 90.359375 C5.86449271 77.69177579 8.69846151 63.70507593 8.375 46.765625 C7.69462566 31.82654845 -0.04684735 20.16659637 -10.625 10.03515625 C-14.47659793 6.73469157 -18.45251423 4.23301913 -23 2 C-23.82242188 1.58621094 -24.64484375 1.17242187 -25.4921875 0.74609375 C-43.76866789 -6.85586259 -64.72581078 -2.73321804 -80 9 Z " fill="#1D2021" transform="translate(297,212)"/>
<path d="M0 0 C10.23 0 20.46 0 31 0 C29.58843021 3.52892447 28.22615467 6.54862203 26.375 9.8125 C25.92898437 10.60269531 25.48296875 11.39289063 25.0234375 12.20703125 C24.68570313 12.79871094 24.34796875 13.39039063 24 14 C24.556875 14.474375 25.11375 14.94875 25.6875 15.4375 C28 18 28 18 33 27 C47.85 27 62.7 27 78 27 C74.58275259 37.25174222 68.14280486 44.15939638 58.66796875 49.25390625 C54.65700798 51.16293733 51.52217125 52.42395355 47 52 C46.67 52.33 46.34 52.66 46 53 C33.59300485 53.98802442 23.68668895 52.38284223 13.65625 44.5625 C11.84429246 42.85310609 10.4736662 41.00370418 9 39 C8.195625 38.278125 7.39125 37.55625 6.5625 36.8125 C0.19826392 29.82736284 -1.17160704 21.65051586 -1.125 12.5 C-1.12886719 11.74074219 -1.13273438 10.98148437 -1.13671875 10.19921875 C-1.13035354 6.56468198 -0.88715621 3.54862485 0 0 Z " fill="#242627" transform="translate(211,252)"/>
<path d="M0 0 C3 1 3 1 4.7890625 3.984375 C5.41144423 5.23445797 6.02303651 6.48995777 6.625 7.75 C6.93695313 8.37132812 7.24890625 8.99265625 7.5703125 9.6328125 C10.30979421 15.22985702 11.14090125 19.75986605 11.125 25.9375 C11.12886719 27.43603516 11.12886719 27.43603516 11.1328125 28.96484375 C11 32 11 32 10 38 C0.1 38 -9.8 38 -20 38 C-19.505 35.03 -19.505 35.03 -19 32 C-18.34 31.67 -17.68 31.34 -17 31 C-16.1273108 29.59822396 -15.3290225 28.15003402 -14.5625 26.6875 C-13.78712891 25.22957031 -13.78712891 25.22957031 -12.99609375 23.7421875 C-12.69300293 23.17081055 -12.38991211 22.59943359 -12.07763672 22.01074219 C-9.79807812 17.75735645 -7.45477801 13.53851343 -5.125 9.3125 C-4.14832289 7.53782348 -3.1717519 5.76308856 -2.1953125 3.98828125 C-1.46356851 2.65883939 -0.73180843 1.32940639 0 0 Z " fill="#1E2122" transform="translate(281,238)"/>
<path d="M0 0 C14.52 0 29.04 0 44 0 C40.58275259 10.25174222 34.14280486 17.15939638 24.66796875 22.25390625 C20.50675599 24.2344503 17.63392768 25.08135575 13 25 C10.82642556 21.21225306 8.6623228 17.41917971 6.5 13.625 C5.87996094 12.54476563 5.25992188 11.46453125 4.62109375 10.3515625 C4.03457031 9.3203125 3.44804687 8.2890625 2.84375 7.2265625 C2.02680664 5.79691162 2.02680664 5.79691162 1.19335938 4.33837891 C0 2 0 2 0 0 Z " fill="#1E2122" transform="translate(245,279)"/>
<path d="M0 0 C13.29725408 -0.59392202 24.62884303 0.55019866 35 10 C35.76293945 11.79272461 35.76293945 11.79272461 36 14 C35.02783203 16.33422852 35.02783203 16.33422852 33.5078125 18.87890625 C32.69763672 20.26045898 32.69763672 20.26045898 31.87109375 21.66992188 C31.00677734 23.10174805 31.00677734 23.10174805 30.125 24.5625 C29.00047883 26.4583764 27.87798913 28.35545964 26.7578125 30.25390625 C26.2539502 31.09252197 25.75008789 31.9311377 25.23095703 32.79516602 C23.87616828 35.06091787 23.87616828 35.06091787 23 38 C22.34 38 21.68 38 21 38 C19.59887695 35.98730469 19.59887695 35.98730469 17.98828125 33.171875 C17.39466797 32.14320313 16.80105469 31.11453125 16.18945312 30.0546875 C15.26036133 28.41886719 15.26036133 28.41886719 14.3125 26.75 C13.71244141 25.70585937 13.11238281 24.66171875 12.49414062 23.5859375 C11.27828317 21.47026717 10.06622496 19.35240906 8.85791016 17.23242188 C6.37768264 12.91728229 3.82972486 8.64296875 1.27416992 4.37207031 C0 2 0 2 0 0 Z " fill="#1E2122" transform="translate(244,224)"/>
<path d="M0 0 C1.76098633 2.10131836 1.76098633 2.10131836 3.33203125 4.83984375 C4.18764648 6.3103418 4.18764648 6.3103418 5.06054688 7.81054688 C5.63869141 8.84244141 6.21683594 9.87433594 6.8125 10.9375 C7.7087207 12.47954102 7.7087207 12.47954102 8.62304688 14.05273438 C13 21.67113393 13 21.67113393 13 24 C-1.19 24 -15.38 24 -30 24 C-28.26573009 15.32865045 -22.72238274 9.55948193 -16 4 C-6.04536454 -2.00546407 -6.04536454 -2.00546407 0 0 Z " fill="#1E2122" transform="translate(243,226)"/>
<path d="M0 0 C1.58206057 0.00667536 3.16410534 0.0186375 4.74609375 0.03515625 C5.55240234 0.03966797 6.35871094 0.04417969 7.18945312 0.04882812 C9.18753131 0.06065107 11.18557158 0.07858711 13.18359375 0.09765625 C14.22474798 1.79368141 15.24077753 3.50514562 16.24609375 5.22265625 C16.81457031 6.17398437 17.38304687 7.1253125 17.96875 8.10546875 C19.3906387 11.60761263 19.12028549 13.49005493 18.18359375 17.09765625 C17.19359375 17.42765625 16.20359375 17.75765625 15.18359375 18.09765625 C14.01405959 20.52148702 14.01405959 20.52148702 13.18359375 23.09765625 C12.85359375 23.75765625 12.52359375 24.41765625 12.18359375 25.09765625 C9.7858463 25.2333778 7.3958413 25.33202493 4.99609375 25.41015625 C3.98579102 25.47299805 3.98579102 25.47299805 2.95507812 25.53710938 C-0.98838815 25.63329148 -2.60327038 25.27093745 -5.69921875 22.75390625 C-7.65830461 20.29601256 -9.20339581 17.78600699 -10.81640625 15.09765625 C-11.47640625 15.09765625 -12.13640625 15.09765625 -12.81640625 15.09765625 C-11.49902697 11.50827501 -9.90844887 8.50271128 -7.75390625 5.34765625 C-7.22667969 4.5690625 -6.69945312 3.79046875 -6.15625 2.98828125 C-4.11310898 0.10524844 -4.11310898 0.10524844 0 0 Z " fill="#F7F7F7" transform="translate(246.81640625,251.90234375)"/>
<path d="M0 0 C12.47890384 7.02715681 19.86191703 16.85528233 24.3515625 30.32421875 C24.57611741 33.25777389 24.53671134 36.19542348 24.5390625 39.13671875 C24.55130859 39.93142578 24.56355469 40.72613281 24.57617188 41.54492188 C24.57810547 42.32416016 24.58003906 43.10339844 24.58203125 43.90625 C24.58614014 44.60983643 24.59024902 45.31342285 24.59448242 46.03833008 C24.3515625 48.32421875 24.3515625 48.32421875 22.3515625 54.32421875 C6.5115625 54.32421875 -9.3284375 54.32421875 -25.6484375 54.32421875 C-25.9784375 53.33421875 -26.3084375 52.34421875 -26.6484375 51.32421875 C-21.0384375 51.65421875 -15.4284375 51.98421875 -9.6484375 52.32421875 C-9.3184375 51.33421875 -8.9884375 50.34421875 -8.6484375 49.32421875 C-8.3184375 49.98421875 -7.9884375 50.64421875 -7.6484375 51.32421875 C2.2515625 51.32421875 12.1515625 51.32421875 22.3515625 51.32421875 C22.66433357 37.35377762 22.55794872 26.21399944 14.3515625 14.32421875 C13.6915625 13.99421875 13.0315625 13.66421875 12.3515625 13.32421875 C12.14789063 14.08992188 11.94421875 14.855625 11.734375 15.64453125 C9.78731196 20.82569899 7.01268447 25.42855051 4.2265625 30.19921875 C3.66324219 31.17375 3.09992188 32.14828125 2.51953125 33.15234375 C1.13505887 35.54583837 -0.25437291 37.93630255 -1.6484375 40.32421875 C-2.3084375 39.33421875 -2.9684375 38.34421875 -3.6484375 37.32421875 C-2.9884375 37.32421875 -2.3284375 37.32421875 -1.6484375 37.32421875 C-1.53580566 36.75960937 -1.42317383 36.195 -1.30712891 35.61328125 C-0.56275244 33.02644888 0.5341302 31.02328658 1.890625 28.69921875 C2.38820313 27.8278125 2.88578125 26.95640625 3.3984375 26.05859375 C4.45247833 24.23228538 5.51240679 22.40936265 6.578125 20.58984375 C7.073125 19.7184375 7.568125 18.84703125 8.078125 17.94921875 C8.53783691 17.15773437 8.99754883 16.36625 9.47119141 15.55078125 C10.50034427 12.94793208 10.43315256 11.87660611 9.3515625 9.32421875 C6.28451049 6.87894726 2.82155166 5.13819253 -0.6484375 3.32421875 C-1.57849609 2.82148438 -1.57849609 2.82148438 -2.52734375 2.30859375 C-9.33455471 -0.79805286 -17.29879938 -0.4171168 -24.6484375 -0.67578125 C-24.26510254 -0.00522705 -23.88176758 0.66532715 -23.48681641 1.35620117 C-21.74571328 4.40616446 -20.00953238 7.45890213 -18.2734375 10.51171875 C-17.67015625 11.56681641 -17.066875 12.62191406 -16.4453125 13.70898438 C-15.86523438 14.73056641 -15.28515625 15.75214844 -14.6875 16.8046875 C-13.88626709 18.21077271 -13.88626709 18.21077271 -13.06884766 19.64526367 C-11.73588159 22.15929541 -10.64882745 24.66284381 -9.6484375 27.32421875 C-25.65036333 28.86972422 -41.62122561 27.9941079 -57.6484375 27.32421875 C-58.50368904 42.77452702 -58.50368904 42.77452702 -54.42578125 57.4609375 C-54.16925781 58.07582031 -53.91273438 58.69070313 -53.6484375 59.32421875 C-53.9784375 59.98421875 -54.3084375 60.64421875 -54.6484375 61.32421875 C-60.63541088 50.34810089 -62.42755315 39.945616 -59.0234375 27.76171875 C-55.03442139 15.87835609 -47.56736842 6.57694913 -36.3359375 0.88671875 C-25.40724022 -4.24878945 -11.23633172 -4.95720517 0 0 Z M-45.546875 8.7421875 C-49.89882256 12.96013081 -53.25307162 16.69166512 -55.6484375 22.32421875 C-55.6484375 23.31421875 -55.6484375 24.30421875 -55.6484375 25.32421875 C-41.4584375 25.32421875 -27.2684375 25.32421875 -12.6484375 25.32421875 C-14.72882329 20.12325427 -17.21428677 15.4401312 -19.9609375 10.57421875 C-20.43466797 9.69894531 -20.90839844 8.82367188 -21.39648438 7.921875 C-22.10321289 6.67470703 -22.10321289 6.67470703 -22.82421875 5.40234375 C-23.24614502 4.6434082 -23.66807129 3.88447266 -24.1027832 3.10253906 C-30.09230504 -3.78858035 -40.3789564 4.43094544 -45.546875 8.7421875 Z " fill="#767879" transform="translate(268.6484375,224.67578125)"/>
<path d="M0 0 C8.75582656 3.85103094 12.68903059 12.53103278 16 21 C17.32927479 24.98782436 17.1841626 28.63741629 17.1875 32.8125 C17.19974609 33.60720703 17.21199219 34.40191406 17.22460938 35.22070312 C17.22654297 35.99994141 17.22847656 36.77917969 17.23046875 37.58203125 C17.23457764 38.28561768 17.23868652 38.9892041 17.24291992 39.71411133 C17 42 17 42 15 48 C-0.84 48 -16.68 48 -33 48 C-33.495 46.515 -33.495 46.515 -34 45 C-28.39 45.33 -22.78 45.66 -17 46 C-16.67 45.01 -16.34 44.02 -16 43 C-15.67 43.66 -15.34 44.32 -15 45 C-5.1 45 4.8 45 15 45 C15.31277107 31.02955887 15.20638622 19.88978069 7 8 C6.34 7.67 5.68 7.34 5 7 C4.79632813 7.76570312 4.59265625 8.53140625 4.3828125 9.3203125 C2.43574946 14.50148024 -0.33887803 19.10433176 -3.125 23.875 C-3.68832031 24.84953125 -4.25164062 25.8240625 -4.83203125 26.828125 C-6.21650363 29.22161962 -7.60593541 31.6120838 -9 34 C-9.66 33.01 -10.32 32.02 -11 31 C-10.34 31 -9.68 31 -9 31 C-8.88736816 30.43539063 -8.77473633 29.87078125 -8.65869141 29.2890625 C-7.91431494 26.70223013 -6.8174323 24.69906783 -5.4609375 22.375 C-4.71457031 21.06789062 -4.71457031 21.06789062 -3.953125 19.734375 C-2.89908417 17.90806663 -1.83915571 16.0851439 -0.7734375 14.265625 C-0.2784375 13.39421875 0.2165625 12.5228125 0.7265625 11.625 C1.18627441 10.83351562 1.64598633 10.04203125 2.11962891 9.2265625 C3.1605757 6.59388508 3.04786162 5.59330742 2 3 C1.34 2.01 0.68 1.02 0 0 Z " fill="#868788" transform="translate(276,231)"/>
<path d="M0 0 C3.6578218 2.03993908 5.66946174 3.50419262 8 7 C8.72022276 11.47208083 8.58211165 14.98669453 6.3125 18.9375 C3.80392405 21.17487855 2.27293835 22.23885155 -1 23 C-8.88616462 22.44658494 -8.88616462 22.44658494 -12 20 C-14.12898317 16.25592614 -15 13.69434556 -15 9.375 C-13.80043663 5.32647362 -12.2562248 3.63599151 -9 1 C-5.64870516 -0.11709828 -3.51689744 -0.34479387 0 0 Z M-10 6 C-11.54586876 9.09173752 -11.29359521 11.59429552 -11 15 C-9.07017583 17.71604883 -7.65799225 18.74692606 -4.5625 19.9375 C-1.18120249 20.01997067 0.33086744 19.0198841 3 17 C5.32877362 14.12405164 5.32877362 14.12405164 4.9375 10.5625 C4.28005502 6.90386053 4.28005502 6.90386053 1.6875 4.5625 C-3.03095006 1.81921508 -5.82795262 3.06829103 -10 6 Z " fill="#000000" transform="translate(182,392)"/>
<path d="M0 0 C3.08193978 1.6281946 5.26420667 3.03009062 7.375 5.8125 C8.58341074 10.04193758 8.52254396 13.64753327 6.9375 17.75 C4.25859351 20.86098819 1.9171118 21.82486646 -2 23 C-6.56377786 23 -8.37430059 22.53048428 -11.875 19.5625 C-15.20881499 15.54231133 -15.3542605 13.22534241 -15 8 C-12.05583481 1.18193323 -7.22167657 -0.88687256 0 0 Z M-10 6 C-11.96138387 8.58546056 -12.01298264 9.78795025 -11.8125 13.0625 C-10.97106637 16.10460621 -10.5789516 17.24999713 -8 19 C-5.04091495 20.01231857 -3.41079334 20.10758873 -0.375 19.3125 C2.39783241 17.78014525 3.60857119 16.86015922 5 14 C5 9.68594211 4.68522185 7.72226087 1.6875 4.5625 C-2.9931078 1.84121639 -5.90116796 2.97980797 -10 6 Z " fill="#000000" transform="translate(370,392)"/>
<path d="M0 0 C3.08193978 1.6281946 5.26420667 3.03009062 7.375 5.8125 C8.58341074 10.04193758 8.52254396 13.64753327 6.9375 17.75 C4.25859351 20.86098819 1.9171118 21.82486646 -2 23 C-6.56377786 23 -8.37430059 22.53048428 -11.875 19.5625 C-15.20881499 15.54231133 -15.3542605 13.22534241 -15 8 C-12.05583481 1.18193323 -7.22167657 -0.88687256 0 0 Z M-10 6 C-11.96138387 8.58546056 -12.01298264 9.78795025 -11.8125 13.0625 C-10.97106637 16.10460621 -10.5789516 17.24999713 -8 19 C-5.04091495 20.01231857 -3.41079334 20.10758873 -0.375 19.3125 C2.39783241 17.78014525 3.60857119 16.86015922 5 14 C5 9.68594211 4.68522185 7.72226087 1.6875 4.5625 C-2.9931078 1.84121639 -5.90116796 2.97980797 -10 6 Z " fill="#000000" transform="translate(314,392)"/>
<path d="M0 0 C2.0625 -0.061875 4.125 -0.12375 6.25 -0.1875 C7.99023438 -0.23970703 7.99023438 -0.23970703 9.765625 -0.29296875 C13.25371844 0.02298174 14.557302 0.55145823 17 3 C18.48772804 7.03811896 17.6693203 9.17038285 16 13 C16 16.76687864 16.23537317 17.91190305 18 21 C15.6875 20.75 15.6875 20.75 13 20 C12.54625 19.34 12.0925 18.68 11.625 18 C10.02538667 15.59884871 10.02538667 15.59884871 6.3125 15.25 C5.219375 15.1675 4.12625 15.085 3 15 C3 16.98 3 18.96 3 21 C2.01 21 1.02 21 0 21 C0 14.07 0 7.14 0 0 Z M3 2 C3 5.3 3 8.6 3 12 C8.26271712 12.44711919 8.26271712 12.44711919 13.0625 10.8125 C14.19621187 8.96075763 14.19621187 8.96075763 14 6.4375 C13.21451304 3.81960271 13.21451304 3.81960271 10.75 2.6875 C7.6639871 1.79788698 7.6639871 1.79788698 3 2 Z " fill="#000000" transform="translate(100,393)"/>
<path d="M0 0 C13.24210988 -0.49503214 13.24210988 -0.49503214 16.89453125 1.890625 C19.74321469 4.74459357 20.18699868 6.38232697 20.3125 10.3125 C20.28413514 13.83541599 20.06650675 14.89358919 18.125 18 C13.11672267 22.71367278 6.54024136 21.05945674 0 21 C0 14.07 0 7.14 0 0 Z M3 2 C3 7.61 3 13.22 3 19 C9.65248417 18.82107535 9.65248417 18.82107535 15.625 16.375 C17.56985817 13.01569952 17.54502111 10.81514776 17 7 C15.75609295 4.42044581 15.75609295 4.42044581 13 3 C9.63483687 2.37760306 6.43382537 2.18072765 3 2 Z " fill="#000000" transform="translate(25,393)"/>
<path d="M0 0 C12.34211178 -0.49368447 12.34211178 -0.49368447 15.39453125 1.796875 C17.71271324 4.97802985 17.48003127 7.1597498 17 11 C15.5 13.4375 15.5 13.4375 14 15 C15.98 17.97 15.98 17.97 18 21 C15.6875 20.75 15.6875 20.75 13 20 C12.54625 19.34 12.0925 18.68 11.625 18 C10.02538667 15.59884871 10.02538667 15.59884871 6.3125 15.25 C5.219375 15.1675 4.12625 15.085 3 15 C3 16.98 3 18.96 3 21 C2.01 21 1.02 21 0 21 C0 14.07 0 7.14 0 0 Z M3 2 C3 5.3 3 8.6 3 12 C8.26271712 12.44711919 8.26271712 12.44711919 13.0625 10.8125 C14.19621187 8.96075763 14.19621187 8.96075763 14 6.4375 C13.21451304 3.81960271 13.21451304 3.81960271 10.75 2.6875 C7.6639871 1.79788698 7.6639871 1.79788698 3 2 Z " fill="#000000" transform="translate(562,393)"/>
<path d="M0 0 C12.34211178 -0.49368447 12.34211178 -0.49368447 15.39453125 1.796875 C17.71271324 4.97802985 17.48003127 7.1597498 17 11 C15.5 13.4375 15.5 13.4375 14 15 C15.98 17.97 15.98 17.97 18 21 C15.6875 20.75 15.6875 20.75 13 20 C12.54625 19.34 12.0925 18.68 11.625 18 C10.02538667 15.59884871 10.02538667 15.59884871 6.3125 15.25 C5.219375 15.1675 4.12625 15.085 3 15 C3 16.98 3 18.96 3 21 C2.01 21 1.02 21 0 21 C0 14.07 0 7.14 0 0 Z M3 2 C3 5.3 3 8.6 3 12 C8.26271712 12.44711919 8.26271712 12.44711919 13.0625 10.8125 C14.19621187 8.96075763 14.19621187 8.96075763 14 6.4375 C13.21451304 3.81960271 13.21451304 3.81960271 10.75 2.6875 C7.6639871 1.79788698 7.6639871 1.79788698 3 2 Z " fill="#000000" transform="translate(419,393)"/>
<path d="M0 0 C13.47260771 -0.37080572 13.47260771 -0.37080572 15.89453125 1.33203125 C17.59545156 3.89843751 17.8776054 5.94013493 18 9 C15.86956522 13.56521739 15.86956522 13.56521739 13 15 C11.45976004 15.06950541 9.91665012 15.08452357 8.375 15.0625 C7.14910156 15.04896484 7.14910156 15.04896484 5.8984375 15.03515625 C4.95871094 15.01775391 4.95871094 15.01775391 4 15 C4 16.98 4 18.96 4 21 C2.68 21 1.36 21 0 21 C0 14.07 0 7.14 0 0 Z M4 2 C4 5.3 4 8.6 4 12 C9.13725982 12.48489837 9.13725982 12.48489837 13.4375 10 C13.953125 9.34 14.46875 8.68 15 8 C14.34 6.35 13.68 4.7 13 3 C10.03 2.67 7.06 2.34 4 2 Z " fill="#000000" transform="translate(475,393)"/>
<path d="M0 0 C13.47260771 -0.37080572 13.47260771 -0.37080572 15.89453125 1.33203125 C17.59545156 3.89843751 17.8776054 5.94013493 18 9 C15.86956522 13.56521739 15.86956522 13.56521739 13 15 C11.45976004 15.06950541 9.91665012 15.08452357 8.375 15.0625 C7.14910156 15.04896484 7.14910156 15.04896484 5.8984375 15.03515625 C4.95871094 15.01775391 4.95871094 15.01775391 4 15 C4 16.98 4 18.96 4 21 C2.68 21 1.36 21 0 21 C0 14.07 0 7.14 0 0 Z M4 2 C4 5.3 4 8.6 4 12 C9.13725982 12.48489837 9.13725982 12.48489837 13.4375 10 C13.953125 9.34 14.46875 8.68 15 8 C14.34 6.35 13.68 4.7 13 3 C10.03 2.67 7.06 2.34 4 2 Z " fill="#000000" transform="translate(241,393)"/>
<path d="M0 0 C0.99 0.66 1.98 1.32 3 2 C2.67 2.99 2.34 3.98 2 5 C1.40832031 4.82082031 0.81664062 4.64164062 0.20703125 4.45703125 C-4.89552454 3.06213188 -4.89552454 3.06213188 -10 4 C-12.20386671 5.91349276 -12.20386671 5.91349276 -13 8.875 C-13 12.64275568 -12.4970475 14.18075282 -10 17 C-6.38265938 18.05505768 -4.59002381 18.1966746 -1 17 C-0.67 14.69 -0.34 12.38 0 10 C0.99 10 1.98 10 3 10 C3 12.97 3 15.94 3 19 C-1.26692568 21.66682855 -4.23396231 22.48226026 -9.1015625 21.65234375 C-12.88908934 20.35086848 -15.25115539 17.49768921 -17 14 C-17.37593152 9.01890741 -17.1765161 5.94326136 -14 2 C-9.67912048 -1.81254075 -5.31757422 -1.32441455 0 0 Z " fill="#000000" transform="translate(404,393)"/>
<path d="M0 0 C1.32 0 2.64 0 4 0 C6.97 6.6 9.94 13.2 13 20 C11.68 20.33 10.36 20.66 9 21 C8.78601563 20.35546875 8.57203125 19.7109375 8.3515625 19.046875 C7.1526477 16.72160885 7.1526477 16.72160885 4.3984375 16.390625 C2.90183594 16.32101562 2.90183594 16.32101562 1.375 16.25 C0.37210938 16.19328125 -0.63078125 16.1365625 -1.6640625 16.078125 C-2.82035156 16.03945313 -2.82035156 16.03945313 -4 16 C-4.99 18.475 -4.99 18.475 -6 21 C-6.99 21 -7.98 21 -9 21 C-6.76686274 13.55620912 -3.59727921 6.88023305 0 0 Z M1 4 C0.01 6.97 -0.98 9.94 -2 13 C0.64 13 3.28 13 6 13 C4.68 10.03 3.36 7.06 2 4 C1.67 4 1.34 4 1 4 Z " fill="#000000" transform="translate(78,393)"/>
<path d="M0 0 C1.32 0 2.64 0 4 0 C5.50626117 3.12202006 7.00393243 6.24808399 8.5 9.375 C8.92925781 10.26445312 9.35851562 11.15390625 9.80078125 12.0703125 C10.40986328 13.34648437 10.40986328 13.34648437 11.03125 14.6484375 C11.40830078 15.43395996 11.78535156 16.21948242 12.17382812 17.02880859 C13 19 13 19 13 21 C11.68 21 10.36 21 9 21 C8.505 18.525 8.505 18.525 8 16 C4.04 16 0.08 16 -4 16 C-4.33 17.65 -4.66 19.3 -5 21 C-6.32 21 -7.64 21 -9 21 C-7.50640515 16.15713185 -5.54966433 11.68649104 -3.375 7.125 C-2.88773437 6.09246094 -2.88773437 6.09246094 -2.390625 5.0390625 C-1.59676528 3.35794781 -0.79880442 1.67877079 0 0 Z M1 5 C-1.2013866 8.80427492 -1.2013866 8.80427492 -2 13 C0.64 13 3.28 13 6 13 C5.01 10.36 4.02 7.72 3 5 C2.34 5 1.68 5 1 5 Z " fill="#000000" transform="translate(453,393)"/>
<path d="M0 0 C0 1.32 0 2.64 0 4 C-2.01822917 3.70703125 -4.03645833 3.4140625 -6.0546875 3.12109375 C-8.08140667 2.8315703 -8.08140667 2.8315703 -10 4 C-10 4.99 -10 5.98 -10 7 C-9.30132813 7.26554687 -8.60265625 7.53109375 -7.8828125 7.8046875 C-6.51769531 8.33449219 -6.51769531 8.33449219 -5.125 8.875 C-3.76761719 9.39707031 -3.76761719 9.39707031 -2.3828125 9.9296875 C0 11 0 11 2 13 C1.9375 15.9375 1.9375 15.9375 1 19 C-1.27819218 21.14011992 -2.8499314 21.98654891 -6.00390625 22.0234375 C-9.6584987 21.65999737 -11.92496586 21.05002276 -15 19 C-14.505 17.515 -14.505 17.515 -14 16 C-12.6696875 16.5259375 -12.6696875 16.5259375 -11.3125 17.0625 C-7.93796874 18.01755602 -6.30313848 17.97151132 -3 17 C-3 16.01 -3 15.02 -3 14 C-3.71027344 13.72285156 -4.42054688 13.44570313 -5.15234375 13.16015625 C-6.07144531 12.79792969 -6.99054687 12.43570312 -7.9375 12.0625 C-8.85402344 11.70285156 -9.77054688 11.34320313 -10.71484375 10.97265625 C-13 10 -13 10 -14 9 C-14.375 5.625 -14.375 5.625 -14 2 C-9.9477798 -2.18293698 -5.24300355 -0.94808125 0 0 Z " fill="#000000" transform="translate(603,393)"/>
<path d="M0 0 C0.99 0 1.98 0 3 0 C3 2.97 3 5.94 3 9 C6.96 9 10.92 9 15 9 C15 6.03 15 3.06 15 0 C15.99 0 16.98 0 18 0 C18 6.93 18 13.86 18 21 C17.01 21 16.02 21 15 21 C15 18.03 15 15.06 15 12 C11.04 12 7.08 12 3 12 C3 14.97 3 17.94 3 21 C2.01 21 1.02 21 0 21 C0 14.07 0 7.14 0 0 Z " fill="#000000" transform="translate(504,393)"/>
<path d="M0 0 C0.99 0 1.98 0 3 0 C3 2.97 3 5.94 3 9 C6.96 9 10.92 9 15 9 C15 6.03 15 3.06 15 0 C15.99 0 16.98 0 18 0 C18 6.93 18 13.86 18 21 C17.01 21 16.02 21 15 21 C15 18.03 15 15.06 15 12 C11.04 12 7.08 12 3 12 C3 14.97 3 17.94 3 21 C2.01 21 1.02 21 0 21 C0 14.07 0 7.14 0 0 Z " fill="#000000" transform="translate(270,393)"/>
<path d="M0 0 C0.433125 0.495 0.86625 0.99 1.3125 1.5 C2.99740483 3.33218192 2.99740483 3.33218192 6 3 C6.061875 3.8353125 6.061875 3.8353125 6.125 4.6875 C8.38606578 10.66317384 15.25328006 13.33650545 20.6328125 15.984375 C25.27118601 17.97443624 29.74517968 18.27394231 34.75 18.5625 C35.44738281 18.60568359 36.14476562 18.64886719 36.86328125 18.69335938 C38.57531922 18.79889596 40.28763561 18.8998991 42 19 C42.33 18.34 42.66 17.68 43 17 C44.670625 16.87625 44.670625 16.87625 46.375 16.75 C55.86934471 15.72910272 62.77124185 9.88101691 68.63671875 2.7578125 C69.08660156 2.17773438 69.53648437 1.59765625 70 1 C70 5.9436738 66.35281188 8.62068368 63 12 C54.62656817 19.8015877 43.72400376 21.66051232 32.65307617 21.53613281 C20.5337052 21.01850665 12.21806401 15.69447352 4 7 C0 2.34246575 0 2.34246575 0 0 Z " fill="#686A6B" transform="translate(215,286)"/>
<path d="M0 0 C4.95 0 9.9 0 15 0 C15 0.66 15 1.32 15 2 C11.04 2 7.08 2 3 2 C3 4.31 3 6.62 3 9 C6.63 9 10.26 9 14 9 C14 9.99 14 10.98 14 12 C10.37 12 6.74 12 3 12 C3 14.31 3 16.62 3 19 C7.29 19 11.58 19 16 19 C16 19.66 16 20.32 16 21 C10.72 21 5.44 21 0 21 C0 14.07 0 7.14 0 0 Z " fill="#000000" transform="translate(535,393)"/>
<path d="M0 0 C4.55689278 0.48249453 4.55689278 0.48249453 6.58203125 2.84765625 C6.98808594 3.57855469 7.39414063 4.30945313 7.8125 5.0625 C8.23144531 5.79597656 8.65039062 6.52945312 9.08203125 7.28515625 C9.38496094 7.85105469 9.68789062 8.41695313 10 9 C12.88474051 5.42103996 12.88474051 5.42103996 15.5625 1.6875 C16.036875 1.130625 16.51125 0.57375 17 0 C17.99 0 18.98 0 20 0 C18.86709234 3.29573139 17.38738351 5.95530075 15.4375 8.8125 C12.78214855 12.91267503 12.25942456 16.15740821 12 21 C11.01 21 10.02 21 9 21 C8.814375 19.7625 8.62875 18.525 8.4375 17.25 C7.04718355 10.79275249 3.49362016 5.52066716 0 0 Z " fill="#000000" transform="translate(125,393)"/>
<path d="M0 0 C5.28 0 10.56 0 16 0 C16 0.66 16 1.32 16 2 C11.71 2 7.42 2 3 2 C3 4.64 3 7.28 3 10 C6.63 10 10.26 10 14 10 C14 10.66 14 11.32 14 12 C10.37 12 6.74 12 3 12 C3 14.97 3 17.94 3 21 C2.01 21 1.02 21 0 21 C0 14.07 0 7.14 0 0 Z " fill="#000000" transform="translate(201,393)"/>
<path d="M0 0 C1.0108667 0.00572021 2.0217334 0.01144043 3.06323242 0.01733398 C15.6130142 0.31530226 26.248716 4.10115629 35.8125 12.5 C36.85281801 13.80211989 37.86662928 15.12773677 38.8125 16.5 C35.97475749 15.19550399 33.84575198 13.73127012 31.5 11.6875 C21.17670372 3.74050965 6.43628006 1.666887 -6.1875 2.5 C-9.3291131 3.10529898 -12.36020551 3.8612657 -15.43359375 4.74609375 C-18.33547138 5.54050848 -21.21467732 6.04904163 -24.1875 6.5 C-17.54394319 0.43414378 -8.55591937 -0.05634995 0 0 Z " fill="#858687" transform="translate(250.1875,209.5)"/>
<path d="M0 0 C5.94 0 11.88 0 18 0 C18 0.66 18 1.32 18 2 C15.36 2 12.72 2 10 2 C10 8.27 10 14.54 10 21 C9.01 21 8.02 21 7 21 C7 14.73 7 8.46 7 2 C4.69 2 2.38 2 0 2 C0 1.34 0 0.68 0 0 Z " fill="#000000" transform="translate(330,393)"/>
<path d="M0 0 C0.99 0 1.98 0 3 0 C3 6.93 3 13.86 3 21 C2.01 21 1.02 21 0 21 C0 14.07 0 7.14 0 0 Z " fill="#000000" transform="translate(56,393)"/>
<path d="M0 0 C0.66 0.33 1.32 0.66 2 1 C0.989375 1.66 -0.02125 2.32 -1.0625 3 C-4.75472899 5.61812601 -7.47189985 8.68705319 -10.3671875 12.140625 C-12.36187069 14.41208241 -14.58612985 16.18959739 -17 18 C-18.0173873 18.98230498 -19.02596117 19.97469597 -20 21 C-16.58944099 11.27990681 -8.40651093 5.35742807 0 0 Z " fill="#7B7C7D" transform="translate(224,216)"/>
<path d="M0 0 C0.96099609 0.01353516 1.92199219 0.02707031 2.91210938 0.04101562 C5.25451752 0.07597694 7.59569156 0.12503896 9.9375 0.1875 C9.9375 0.5175 9.9375 0.8475 9.9375 1.1875 C8.92171875 1.22488281 7.9059375 1.26226562 6.859375 1.30078125 C-0.83222875 1.64588125 -7.96882281 2.3354435 -15.4140625 4.46875 C-18.27888159 5.24622303 -21.12965618 5.74026282 -24.0625 6.1875 C-17.34257841 0.05191942 -8.6207091 -0.23396497 0 0 Z " fill="#919292" transform="translate(250.0625,209.8125)"/>
<path d="M0 0 C1.17482324 3.47454806 1.06339535 3.8675142 -0.65234375 7.453125 C-1.40158685 8.72617522 -2.16382013 9.99165126 -2.9375 11.25 C-3.32357422 11.8996875 -3.70964844 12.549375 -4.10742188 13.21875 C-5.06058418 14.81912129 -6.02885924 16.4104742 -7 18 C-7.66 17.01 -8.32 16.02 -9 15 C-8.34 15 -7.68 15 -7 15 C-6.89816406 14.45859375 -6.79632813 13.9171875 -6.69140625 13.359375 C-5.82242393 10.39403419 -4.44527709 7.94475054 -2.9375 5.25 C-2.11572266 3.77273437 -2.11572266 3.77273437 -1.27734375 2.265625 C-0.85582031 1.51796875 -0.43429687 0.7703125 0 0 Z " fill="#696B6B" transform="translate(274,247)"/>
<path d="M0 0 C4.91851376 1.64786941 8.88061087 3.48403997 13.046875 6.58203125 C12.386875 7.24203125 11.726875 7.90203125 11.046875 8.58203125 C10.29921875 8.17210937 9.5515625 7.7621875 8.78125 7.33984375 C7.30398438 6.53160156 7.30398438 6.53160156 5.796875 5.70703125 C4.82234375 5.17335937 3.8478125 4.6396875 2.84375 4.08984375 C0.59557092 2.87783659 -1.6604055 1.70655558 -3.953125 0.58203125 C-1.953125 -0.41796875 -1.953125 -0.41796875 0 0 Z " fill="#616464" transform="translate(263.953125,223.41796875)"/>
<path d="M0 0 C-2.97 0.66 -5.94 1.32 -9 2 C-9 1.34 -9 0.68 -9 0 C-4.5 -2.25 -4.5 -2.25 0 0 Z " fill="#616363" transform="translate(242,225)"/>
</svg>
