<?xml version="1.0" encoding="UTF-8"?>
<svg version="1.1" xmlns="http://www.w3.org/2000/svg" width="750" height="750">
<path d="M0 0 C247.5 0 495 0 750 0 C750 247.5 750 495 750 750 C502.5 750 255 750 0 750 C0 502.5 0 255 0 0 Z " fill="#080909" transform="translate(0,0)"/>
<path d="M0 0 C1.14339844 0.38542969 2.28679687 0.77085937 3.46484375 1.16796875 C24.12524821 8.61728611 39.86550496 21.33734723 50 41 C57.19403956 58.01501957 59.53112436 80.37911415 53 98 C44.15289078 119.62626699 28.49271596 134.73633853 7.3125 144.3125 C-18.96309349 153.69046676 -47.72725607 152.31579719 -72.96875 140.625 C-79.62819078 137.18304184 -85.36182314 132.92006139 -91 128 C-91.61488281 127.48050781 -92.22976562 126.96101562 -92.86328125 126.42578125 C-104.92715407 115.41576398 -113.36573718 97.64304431 -114.12109375 81.39526367 C-114.7522766 59.02772136 -111.4116638 40.64410662 -96.26953125 23.38671875 C-71.95533501 -2.18294373 -33.49162026 -11.69730082 0 0 Z " fill="#FBFBFB" transform="translate(329,241)"/>
<path d="M0 0 C11.364375 -0.020625 22.72875 -0.04125 34.4375 -0.0625 C38.01005615 -0.071604 41.5826123 -0.08070801 45.26342773 -0.09008789 C49.6661377 -0.09460449 49.6661377 -0.09460449 51.73500061 -0.09544373 C53.16294162 -0.09696734 54.59088143 -0.10045922 56.01881409 -0.10557556 C72.77088416 -0.16253629 88.3053309 0.65381201 101 13 C113.5703271 26.43549131 116.7586961 43.28724478 116.28515625 61.12109375 C115.57924979 76.33500244 110.83895576 91.00865118 100 102 C89.63386675 111.10751336 77.26228743 114.13772244 63.68774414 114.11352539 C62.98313521 114.11364593 62.27852629 114.11376646 61.55256557 114.11389065 C59.2967291 114.11315085 57.04097773 114.10556564 54.78515625 114.09765625 C53.38244669 114.09618394 51.97973658 114.09516501 50.57702637 114.09460449 C45.40550914 114.08938515 40.23400371 114.0754239 35.0625 114.0625 C23.491875 114.041875 11.92125 114.02125 0 114 C0 76.38 0 38.76 0 0 Z " fill="#080A09" transform="translate(53,257)"/>
<path d="M0 0 C12.81384583 -0.04649669 25.62767133 -0.08195692 38.44158459 -0.10362434 C44.39264612 -0.11402759 50.3436496 -0.1281232 56.29467773 -0.15087891 C62.04592262 -0.17273115 67.79711193 -0.18459459 73.54839516 -0.18975449 C75.73424465 -0.19342812 77.92009137 -0.20060134 80.10591698 -0.21146011 C98.72275549 -0.30020286 114.74393704 -0.36295793 129.890625 11.91015625 C137.22756748 19.17916407 141.20026448 27.83331923 141.37988281 38.08154297 C141.37827148 38.94150879 141.37666016 39.80147461 141.375 40.6875 C141.37338867 41.5758252 141.37177734 42.46415039 141.37011719 43.37939453 C141.19277945 52.89130412 138.8136156 60.36962952 133 68 C132.46375 68.825 131.9275 69.65 131.375 70.5 C123.57233164 78.71333512 110.75690339 83.73245502 99.51347351 84.12025452 C98.16092039 84.12313115 96.80834851 84.12054559 95.45581055 84.11352539 C94.3428083 84.11374443 94.3428083 84.11374443 93.20732117 84.1139679 C90.7670901 84.11327404 88.3269364 84.1055064 85.88671875 84.09765625 C84.18992657 84.0957902 82.49313385 84.09436718 80.79634094 84.09336853 C76.3395335 84.0895581 71.88275887 84.07974043 67.42596436 84.06866455 C62.07364327 84.05661595 56.72131119 84.05204117 51.36898041 84.04621124 C43.24596415 84.03652787 35.12301982 84.017361 27 84 C27.33 104.79 27.66 125.58 28 147 C29.65 147 31.3 147 33 147 C33 147.99 33 148.98 33 150 C22.11 150 11.22 150 0 150 C0 149.01 0 148.02 0 147 C1.65 147 3.3 147 5 147 C5 99.48 5 51.96 5 3 C3.35 3 1.7 3 0 3 C0 2.01 0 1.02 0 0 Z " fill="#FBFBFB" transform="translate(416,239)"/>
<path d="M0 0 C13.15313946 -0.0931035 26.30619919 -0.16396863 39.45960236 -0.20724869 C45.56872789 -0.22803174 51.67762625 -0.25617826 57.78662109 -0.30175781 C63.69350892 -0.34554846 69.60017965 -0.36920671 75.50721741 -0.37950897 C77.74922599 -0.38684113 79.99122409 -0.40115721 82.23313904 -0.42292023 C98.36067384 -0.57310246 113.46098028 0.18184789 128 8 C128.80695313 8.41894531 129.61390625 8.83789062 130.4453125 9.26953125 C145.40251629 17.57146546 154.62059544 31.56232351 160.02734375 47.453125 C162.36639247 55.98266812 163.33362322 63.90011186 163.25 72.75 C163.24178223 73.80767578 163.23356445 74.86535156 163.22509766 75.95507812 C162.92304885 97.14396462 157.84745559 116.26861491 142.6875 131.8125 C128.81115057 145.08470905 111.21953185 150.37437955 92.29614258 150.22705078 C91.28991852 150.22734283 90.28369446 150.22763489 89.24697876 150.22793579 C85.96273796 150.22655647 82.6787318 150.21106181 79.39453125 150.1953125 C77.10096867 150.19157739 74.80740448 150.18873277 72.51383972 150.18673706 C66.50844841 150.17913981 60.50315547 150.15952523 54.49780273 150.1373291 C48.35727265 150.11678609 42.2167265 150.10771733 36.07617188 150.09765625 C24.05073828 150.07627537 12.02537736 150.04218709 0 150 C0 149.01 0 148.02 0 147 C1.32 146.67 2.64 146.34 4 146 C4 99.14 4 52.28 4 4 C2.68 3.67 1.36 3.34 0 3 C0 2.01 0 1.02 0 0 Z M26 18 C26 55.62 26 93.24 26 132 C37.42625 132.061875 48.8525 132.12375 60.625 132.1875 C64.20424316 132.21481201 67.78348633 132.24212402 71.47119141 132.27026367 C74.7401538 132.28031015 74.7401538 132.28031015 78.00912476 132.28633118 C79.44103816 132.29087345 80.87294169 132.30128676 82.30477905 132.31672668 C98.63420774 132.483678 114.69025118 130.73733458 127.125 119.0546875 C140.38128943 104.52800367 142.8754651 85.47998941 142.17919922 66.55957031 C141.14749363 51.82332859 134.97711002 38.00223346 124 28 C110.39378779 17.95470278 96.10085967 17.84396788 79.80859375 17.90234375 C78.42777548 17.90381708 77.04695664 17.90483538 75.6661377 17.90539551 C70.58991652 17.91060304 65.51370736 17.92456422 60.4375 17.9375 C43.3909375 17.9684375 43.3909375 17.9684375 26 18 Z " fill="#FBFBFB" transform="translate(27,239)"/>
<path d="M0 0 C0.99 0 1.98 0 3 0 C3 10.56 3 21.12 3 32 C2.01 32 1.02 32 0 32 C-0.99 30.02 -1.98 28.04 -3 26 C-38.97 25.67 -74.94 25.34 -112 25 C-112 40.84 -112 56.68 -112 73 C-98.36316998 72.88028465 -98.36316998 72.88028465 -84.7265625 72.7421875 C-79.167354 72.6818048 -73.60818111 72.62360651 -68.04882812 72.578125 C-63.56835616 72.54133592 -59.08807684 72.49499376 -54.60776901 72.44193649 C-52.895729 72.42335851 -51.18364764 72.40826322 -49.47154617 72.39665604 C-47.07929878 72.37985148 -44.68749588 72.35083148 -42.29541016 72.31884766 C-41.58259384 72.31668747 -40.86977753 72.31452728 -40.13536072 72.31230164 C-36.12114085 72.34886778 -36.12114085 72.34886778 -33 70 C-32.3574765 67.93125966 -32.3574765 67.93125966 -32 66 C-31.01 66 -30.02 66 -29 66 C-29 76.56 -29 87.12 -29 98 C-29.99 98 -30.98 98 -32 98 C-32.66 96.02 -33.32 94.04 -34 92 C-59.74 91.67 -85.48 91.34 -112 91 C-112 106.84 -112 122.68 -112 139 C-76.03 138.67 -40.06 138.34 -3 138 C-2.01 136.02 -1.02 134.04 0 132 C0.99 132 1.98 132 3 132 C3 142.56 3 153.12 3 164 C2.01 164 1.02 164 0 164 C-0.309375 163.195625 -0.61875 162.39125 -0.9375 161.5625 C-1.76335345 159.10919595 -1.76335345 159.10919595 -3 158 C-4.75855767 157.89147769 -6.52147399 157.85312758 -8.28334045 157.84178162 C-9.42904007 157.8319928 -10.57473969 157.82220398 -11.75515747 157.81211853 C-13.02326263 157.80636307 -14.2913678 157.8006076 -15.59790039 157.79467773 C-16.93793544 157.78510434 -18.27796744 157.77509458 -19.61799622 157.76467896 C-23.26656149 157.73756542 -26.91513979 157.7165909 -30.56375051 157.69667697 C-34.37280116 157.67485705 -38.18181139 157.64744889 -41.99082947 157.62062073 C-49.20854822 157.57063966 -56.42628934 157.52572099 -63.64405197 157.48259836 C-71.85918128 157.43327215 -80.07427004 157.37833696 -88.28936017 157.32291877 C-105.19286932 157.20901565 -122.09641609 157.10219485 -139 157 C-139 156.01 -139 155.02 -139 154 C-137.35 153.67 -135.7 153.34 -134 153 C-134 106.14 -134 59.28 -134 11 C-135.65 10.67 -137.3 10.34 -139 10 C-139 9.01 -139 8.02 -139 7 C-137.95140399 6.99503478 -137.95140399 6.99503478 -136.88162422 6.98996925 C-119.8900192 6.90883075 -102.89850879 6.81676863 -85.90703011 6.71247292 C-77.69015499 6.66230158 -69.47329008 6.61585929 -61.25634766 6.578125 C-54.09639663 6.5452353 -46.93652376 6.50542103 -39.77665889 6.45720994 C-35.98381109 6.43191473 -32.19101533 6.41014252 -28.39810562 6.39665604 C-24.8309156 6.3838629 -21.2639038 6.36183872 -17.69681168 6.33261681 C-15.75776847 6.31916905 -13.81866464 6.31561422 -11.87957764 6.31230164 C-10.73250336 6.30113815 -9.58542908 6.28997467 -8.40359497 6.2784729 C-7.40252779 6.27294214 -6.40146061 6.26741138 -5.37005806 6.26171303 C-2.81245531 6.22927156 -2.81245531 6.22927156 -1 4 C-0.3574765 1.93125966 -0.3574765 1.93125966 0 0 Z " fill="#FCFCFC" transform="translate(725,232)"/>
<path d="M0 0 C1.14339844 0.38542969 2.28679687 0.77085937 3.46484375 1.16796875 C24.12524821 8.61728611 39.86550496 21.33734723 50 41 C57.19403956 58.01501957 59.53112436 80.37911415 53 98 C44.15289078 119.62626699 28.49271596 134.73633853 7.3125 144.3125 C-18.96309349 153.69046676 -47.72725607 152.31579719 -72.96875 140.625 C-79.62819078 137.18304184 -85.36182314 132.92006139 -91 128 C-91.61488281 127.48050781 -92.22976562 126.96101562 -92.86328125 126.42578125 C-104.92715407 115.41576398 -113.36573718 97.64304431 -114.12109375 81.39526367 C-114.7522766 59.02772136 -111.4116638 40.64410662 -96.26953125 23.38671875 C-71.95533501 -2.18294373 -33.49162026 -11.69730082 0 0 Z M-73.11328125 29.94921875 C-74.95278718 31.94868172 -76.84596348 33.4792661 -79 35.125 C-87.17267479 42.05987161 -92.17745815 55.29679838 -93.29956055 65.80541992 C-93.43702801 68.77336494 -93.46783988 71.71658093 -93.4375 74.6875 C-93.42920166 75.73969727 -93.42090332 76.79189453 -93.41235352 77.87597656 C-93.02534614 95.82981341 -86.73207887 110.32577231 -74.08984375 123.16796875 C-59.15770022 137.41368807 -42.1291967 140.51065958 -22.2109375 140.27734375 C-15.18376422 140.0664656 -9.42857295 138.98204034 -3 136 C-2.06671875 135.57589844 -1.1334375 135.15179688 -0.171875 134.71484375 C15.35340169 126.93052206 27.06026607 114.37503117 33 98 C33.31839844 97.12472656 33.63679688 96.24945313 33.96484375 95.34765625 C38.96759403 78.9100482 36.99817608 60.11264412 29.0625 45 C26.59412232 40.81938059 24.03390545 36.79238181 21 33 C20.34 33 19.68 33 19 33 C18.75765625 32.41863281 18.5153125 31.83726562 18.265625 31.23828125 C12.98131578 21.89288253 -0.48306327 16.51295761 -10.0390625 12.828125 C-15.91934639 11.26799967 -22.15366053 11.63112262 -28.1875 11.625 C-30.06405273 11.58826172 -30.06405273 11.58826172 -31.97851562 11.55078125 C-48.62556859 11.49878629 -62.41816572 17.25891897 -73.11328125 29.94921875 Z " fill="#F2F2F2" transform="translate(329,241)"/>
<path d="M0 0 C17.98657272 -0.20054405 17.98657272 -0.20054405 25.71875 -0.24414062 C30.97226562 -0.27390325 36.225341 -0.3089151 41.47851562 -0.37719727 C45.71906064 -0.43196513 49.95913287 -0.46151361 54.20000458 -0.47438622 C55.80899232 -0.48354657 57.41795743 -0.5014324 59.02674103 -0.52865028 C69.2369738 -0.69434657 79.5114754 -0.43640875 87.76470947 6.4785614 C93.17603739 12.53094727 93.39255118 18.7221617 93.23828125 26.484375 C92.85843322 32.08869023 92.28227651 36.7127835 88.1953125 40.80859375 C82.18168932 45.54006708 77.02374346 47.30550561 69.36401367 47.22705078 C68.23638107 47.22748886 68.23638107 47.22748886 67.08596802 47.22793579 C64.6131822 47.22654785 62.14070162 47.21101211 59.66796875 47.1953125 C57.94875757 47.19158046 56.22954427 47.18873439 54.5103302 47.18673706 C49.99429409 47.17911564 45.47838745 47.15947998 40.96240234 47.1373291 C35.53918381 47.11323333 30.11592189 47.10408259 24.6926651 47.09242249 C16.4616868 47.07305469 8.23099235 47.03472179 0 47 C0 31.49 0 15.98 0 0 Z " fill="#0A0B0A" transform="translate(443,257)"/>
<path d="M0 0 C4.48968964 4.04605446 7.06430454 9.64267162 10.0625 14.8125 C10.69994141 15.89337891 11.33738281 16.97425781 11.99414062 18.08789062 C12.60580078 19.13783203 13.21746094 20.18777344 13.84765625 21.26953125 C14.40461182 22.22448486 14.96156738 23.17943848 15.53540039 24.16333008 C17.04476933 27.08671026 18.18459853 29.81121753 19 33 C17.69921875 35.88671875 17.69921875 35.88671875 15.6875 38.6875 C12.89305005 42.61240828 12.89305005 42.61240828 11 47 C23.21 47 35.42 47 48 47 C48.75501128 41.71492105 49.19229262 37.01648938 49.1875 31.75 C49.1884668 30.64217163 49.1884668 30.64217163 49.18945312 29.51196289 C49.13208629 23.5242996 48.41002695 17.8289507 47 12 C51.60513137 16.60513137 52.19186625 25.20935564 52.375 31.5 C52.14810962 39.32771798 50.00718636 46.80890217 47 54 C46.67 53.01 46.34 52.02 46 51 C46.495 50.01 46.495 50.01 47 49 C29.18 49 11.36 49 -7 49 C-3.33282957 58.36836546 -3.33282957 58.36836546 3 65 C4 67.109375 4 67.109375 5 69.75 C5.33 70.61109375 5.66 71.4721875 6 72.359375 C6.33 73.23078125 6.66 74.1021875 7 75 C7.66 76.65 8.32 78.3 9 80 C14.94 79.01 14.94 79.01 21 78 C20 80 20 80 18.09716797 80.83398438 C11.68987444 82.79691974 5.81604632 83.54580093 -0.875 83.5 C-2.32072388 83.49250732 -2.32072388 83.49250732 -3.7956543 83.48486328 C-11.39542382 83.29904985 -17.42345038 81.96239688 -24 78 C-24.89589844 77.47277344 -25.79179687 76.94554687 -26.71484375 76.40234375 C-31.0306841 73.6957998 -31.0306841 73.6957998 -33 72 C-33 71.34 -33 70.68 -33 70 C-33.66 70 -34.32 70 -35 70 C-35 69.34 -35 68.68 -35 68 C-35.66 68 -36.32 68 -37 68 C-38.7143618 66.04072937 -40.38405168 64.04119788 -42 62 C-41.67 61.34 -41.34 60.68 -41 60 C-39.68 60.66 -38.36 61.32 -37 62 C-36.63874023 61.37770508 -36.27748047 60.75541016 -35.90527344 60.11425781 C-27.71144511 46.00927854 -19.42280923 31.96953727 -11 18 C-29.315 17.505 -29.315 17.505 -48 17 C-48.33 19.64 -48.66 22.28 -49 25 C-49.33 25 -49.66 25 -50 25 C-49.72876813 16.86304398 -46.91083499 11.06820635 -43 4 C-42.67 4.66 -42.34 5.32 -42 6 C-43.32 8.64 -44.64 11.28 -46 14 C-28.51 14 -11.02 14 7 14 C3.535 8.06 3.535 8.06 0 2 C0 1.34 0 0.68 0 0 Z " fill="#F4F4F4" transform="translate(300,285)"/>
<path d="M0 0 C4.48968964 4.04605446 7.06430454 9.64267162 10.0625 14.8125 C10.69994141 15.89337891 11.33738281 16.97425781 11.99414062 18.08789062 C12.60580078 19.13783203 13.21746094 20.18777344 13.84765625 21.26953125 C14.40461182 22.22448486 14.96156738 23.17943848 15.53540039 24.16333008 C17.04476933 27.08671026 18.18459853 29.81121753 19 33 C17.69921875 35.88671875 17.69921875 35.88671875 15.6875 38.6875 C12.89305005 42.61240828 12.89305005 42.61240828 11 47 C23.21 47 35.42 47 48 47 C48.75501128 41.71492105 49.19229262 37.01648938 49.1875 31.75 C49.1884668 30.64217163 49.1884668 30.64217163 49.18945312 29.51196289 C49.13208629 23.5242996 48.41002695 17.8289507 47 12 C51.60513137 16.60513137 52.19186625 25.20935564 52.375 31.5 C52.14810962 39.32771798 50.00718636 46.80890217 47 54 C46.67 53.01 46.34 52.02 46 51 C46.495 50.01 46.495 50.01 47 49 C29.18 49 11.36 49 -7 49 C-4.69 53.29 -2.38 57.58 0 62 C-0.495 62.99 -0.495 62.99 -1 64 C-3.44244106 59.62129781 -5.87962524 55.23991384 -8.3046875 50.8515625 C-9.92963986 47.91374998 -11.57500116 44.99095329 -13.2578125 42.0859375 C-13.89460938 40.96445312 -14.53140625 39.84296875 -15.1875 38.6875 C-15.75855469 37.70136719 -16.32960938 36.71523438 -16.91796875 35.69921875 C-18 33 -18 33 -17 28 C-15.02 24.7 -13.04 21.4 -11 18 C-29.315 17.505 -29.315 17.505 -48 17 C-48.33 19.64 -48.66 22.28 -49 25 C-49.33 25 -49.66 25 -50 25 C-49.72876813 16.86304398 -46.91083499 11.06820635 -43 4 C-42.67 4.66 -42.34 5.32 -42 6 C-43.32 8.64 -44.64 11.28 -46 14 C-28.51 14 -11.02 14 7 14 C3.535 8.06 3.535 8.06 0 2 C0 1.34 0 0.68 0 0 Z " fill="#313434" transform="translate(300,285)"/>
<path d="M0 0 C2.48613973 2.82112284 4.20038324 6.02491885 6 9.3125 C6.495 10.17423828 6.99 11.03597656 7.5 11.92382812 C11.0988447 18.22649234 14.52503544 24.62923165 18 31 C-0.15 31 -18.3 31 -37 31 C-31.58346891 20.16693782 -26.80674275 10.9547358 -16 5 C-14.82244141 4.33677734 -14.82244141 4.33677734 -13.62109375 3.66015625 C-4.73922964 -1.11831312 -4.73922964 -1.11831312 0 0 Z " fill="#FDFDFD" transform="translate(290,269)"/>
<path d="M0 0 C3.28636404 1.43778427 5.70241762 3.24290115 8 6 C9.20643566 9.61930698 9.32268559 12.19231005 9 16 C6.7481855 20.33682792 4.57681459 23.16927416 0 25 C-4.25269938 25.55773107 -7.81118452 25.47552619 -11.8125 23.875 C-15.06840624 21.08422322 -17.53217269 18.36748974 -18.38671875 14.04296875 C-18.66909078 8.95053517 -17.31522894 5.97827473 -14 2 C-9.5425168 -0.97165547 -5.22871424 -0.5060046 0 0 Z " fill="#0B0D0C" transform="translate(445,473)"/>
<path d="M0 0 C3.43386619 2.54106098 6.53204164 5.6782066 7.40625 10.015625 C7.60061398 14.64796642 7.20914931 17.37102167 4.1875 21 C1.04984459 24.34683244 -1.78659795 25.16398163 -6.3125 25.3125 C-10.91166282 25.26006655 -13.48810392 24.08361607 -17 21 C-19.72514947 16.58337844 -19.80172743 12.04056354 -19 7 C-14.76296704 -0.8597749 -8.14169699 -0.98917814 0 0 Z " fill="#0E0F0E" transform="translate(379,473)"/>
<path d="M0 0 C3.8286758 1.59528158 5.78750612 3.5364302 8 7 C8.90436131 11.93732391 8.4874735 15.98894385 6.3125 20.5 C2.66788423 24.44012515 -0.28211471 25.09616976 -5.5 25.3125 C-9.45562329 25.20736716 -11.9102527 24.6353727 -15 22 C-18.15122435 18.30546111 -18.51593499 14.91554963 -18.359375 10.21875 C-17.80079406 6.77011984 -16.23593827 4.61924197 -14 2 C-9.53862011 -0.97425326 -5.23225066 -0.49867492 0 0 Z " fill="#0D0E0E" transform="translate(218,473)"/>
<path d="M0 0 C2.536875 -0.061875 5.07375 -0.12375 7.6875 -0.1875 C8.47729248 -0.21481201 9.26708496 -0.24212402 10.08081055 -0.27026367 C14.62248537 -0.32366812 17.40119347 0.21361062 21 3 C24.092692 6.62591476 24.63173345 10.07491089 24.4921875 14.7109375 C23.62946775 18.72326905 21.12512125 21.44515635 18 24 C14.37918537 25.20693821 11.0749281 25.10782079 7.3125 25.0625 C3.6928125 25.0315625 3.6928125 25.0315625 0 25 C0 16.75 0 8.5 0 0 Z " fill="#0E0F0E" transform="translate(27,473)"/>
<path d="M0 0 C2.371875 -0.103125 4.74375 -0.20625 7.1875 -0.3125 C7.92508545 -0.35802002 8.6626709 -0.40354004 9.42260742 -0.45043945 C13.29191095 -0.53143095 14.87661136 -0.09596894 17.953125 2.296875 C20 5 20 5 20.5625 8.5625 C19.92776783 12.44141882 19.04569711 13.62054913 16 16 C16.28875 16.556875 16.5775 17.11375 16.875 17.6875 C18.0413253 20.08494645 19.0339881 22.51596939 20 25 C19.01 25 18.02 25 17 25 C15.9296875 23.50390625 15.9296875 23.50390625 14.875 21.5625 C13.26524612 19.10576793 12.52865485 18.15637522 9.67578125 17.3125 C7.43327334 17.08719308 5.25275863 16.9656442 3 17 C3 19.64 3 22.28 3 25 C2.01 25 1.02 25 0 25 C0 16.75 0 8.5 0 0 Z " fill="#EBEBEB" transform="translate(677,473)"/>
<path d="M0 0 C14.77772467 -0.27366157 14.77772467 -0.27366157 18 2 C20.34168764 5.51253146 20.49623677 6.86469356 20 11 C18 13.875 18 13.875 16 16 C17.19899698 19.0831351 18.47700477 22.06279492 20 25 C18.25 24.875 18.25 24.875 16 24 C15.443125 23.01 14.88625 22.02 14.3125 21 C12.37110872 17.85826 12.37110872 17.85826 9.74609375 17.3828125 C7.48632063 17.1494087 5.27117708 17.00970588 3 17 C3 19.64 3 22.28 3 25 C2.01 25 1.02 25 0 25 C0 16.75 0 8.5 0 0 Z " fill="#EBEBEB" transform="translate(504,473)"/>
<path d="M0 0 C13.186056 -0.49293667 13.186056 -0.49293667 16.921875 1.76953125 C19 4 19 4 19.5625 7.9375 C19.32899689 11.96731175 17.8686493 14.1313507 15 17 C16.65 19.64 18.3 22.28 20 25 C18.68 25 17.36 25 16 25 C12 19.88888889 12 19.88888889 12 17 C8.7 17 5.4 17 2 17 C2 19.64 2 22.28 2 25 C1.34 25 0.68 25 0 25 C0 16.75 0 8.5 0 0 Z " fill="#1A1B1B" transform="translate(119,473)"/>
<path d="M0 0 C14.19642857 -0.66964286 14.19642857 -0.66964286 17.9375 2 C20.00846416 5.0123115 20.36702387 5.6323117 20.1875 9.0625 C19.55573021 11.87095564 18.89749916 13.13666779 17.125 15.5 C12.47825283 17.73043864 8.0664211 17.3194241 3 17 C3 19.64 3 22.28 3 25 C2.01 25 1.02 25 0 25 C0 16.75 0 8.5 0 0 Z " fill="#F5F5F5" transform="translate(573,473)"/>
<path d="M0 0 C13.18708098 -0.49297499 13.18708098 -0.49297499 16.91796875 1.76953125 C19 4 19 4 19.625 7.9375 C19.38379519 11.00998987 18.86620017 12.22937114 17.25 15 C12.34061709 18.02115871 7.61992525 17.40334392 2 17 C2 19.64 2 22.28 2 25 C1.34 25 0.68 25 0 25 C0 16.75 0 8.5 0 0 Z " fill="#1A1B1B" transform="translate(290,473)"/>
<path d="M0 0 C1.83886719 0.19750977 1.83886719 0.19750977 4 1 C5.37207031 3.10131836 5.37207031 3.10131836 6.578125 5.83984375 C7.23554687 7.3103418 7.23554687 7.3103418 7.90625 8.81054688 C8.3496875 9.84244141 8.793125 10.87433594 9.25 11.9375 C9.70890625 12.96552734 10.1678125 13.99355469 10.640625 15.05273438 C14 22.66631789 14 22.66631789 14 25 C13.01 25 12.02 25 11 25 C10.34 22.69 9.68 20.38 9 18 C4.05 18 -0.9 18 -6 18 C-6.66 20.31 -7.32 22.62 -8 25 C-8.99 25 -9.98 25 -11 25 C-8.4621689 16.11759114 -4.22230349 8.17381793 0 0 Z " fill="#EFEFEF" transform="translate(546,473)"/>
<path d="M0 0 C1.83886719 0.19750977 1.83886719 0.19750977 4 1 C5.37207031 3.10131836 5.37207031 3.10131836 6.578125 5.83984375 C7.23554687 7.3103418 7.23554687 7.3103418 7.90625 8.81054688 C8.3496875 9.84244141 8.793125 10.87433594 9.25 11.9375 C9.70890625 12.96552734 10.1678125 13.99355469 10.640625 15.05273438 C14 22.66631789 14 22.66631789 14 25 C13.01 25 12.02 25 11 25 C10.34 22.69 9.68 20.38 9 18 C4.05 18 -0.9 18 -6 18 C-6.66 20.31 -7.32 22.62 -8 25 C-8.99 25 -9.98 25 -11 25 C-8.4621689 16.11759114 -4.22230349 8.17381793 0 0 Z " fill="#EFEFEF" transform="translate(92,473)"/>
<path d="M0 0 C2.536875 -0.061875 5.07375 -0.12375 7.6875 -0.1875 C8.47729248 -0.21481201 9.26708496 -0.24212402 10.08081055 -0.27026367 C14.62248537 -0.32366812 17.40119347 0.21361062 21 3 C24.092692 6.62591476 24.63173345 10.07491089 24.4921875 14.7109375 C23.62946775 18.72326905 21.12512125 21.44515635 18 24 C14.37918537 25.20693821 11.0749281 25.10782079 7.3125 25.0625 C3.6928125 25.0315625 3.6928125 25.0315625 0 25 C0 16.75 0 8.5 0 0 Z M3 2 C3 8.93 3 15.86 3 23 C12.0163644 23.47183273 12.0163644 23.47183273 19 20 C21.38692784 17.07058855 21.47088274 13.6891501 21.39453125 9.96875 C20.72206358 6.61306974 18.59717314 5.04063604 16 3 C12.14854957 1.07427479 7.19956748 1.95116782 3 2 Z " fill="#EFEFEF" transform="translate(27,473)"/>
<path d="M0 0 C4.60513137 4.60513137 5.19186625 13.20935564 5.375 19.5 C5.14810962 27.32771798 3.00718636 34.80890217 0 42 C-0.33 41.01 -0.66 40.02 -1 39 C-0.505 38.01 -0.505 38.01 0 37 C-17.82 37 -35.64 37 -54 37 C-51.69 41.29 -49.38 45.58 -47 50 C-47.33 50.66 -47.66 51.32 -48 52 C-49.50256989 49.35559624 -51.0021612 46.70958148 -52.5 44.0625 C-52.92925781 43.30775391 -53.35851562 42.55300781 -53.80078125 41.77539062 C-54.40986328 40.69741211 -54.40986328 40.69741211 -55.03125 39.59765625 C-55.40830078 38.93258057 -55.78535156 38.26750488 -56.17382812 37.58227539 C-57 36 -57 36 -57 35 C-50.4 35 -43.8 35 -37 35 C-36.67 34.34 -36.34 33.68 -36 33 C-36 33.66 -36 34.32 -36 35 C-23.79 35 -11.58 35 1 35 C1.75501128 29.71492105 2.19229262 25.01648938 2.1875 19.75 C2.18814453 19.01144775 2.18878906 18.27289551 2.18945312 17.51196289 C2.13208629 11.5242996 1.41002695 5.8289507 0 0 Z " fill="#848687" transform="translate(347,297)"/>
<path d="M0 0 C3.28636404 1.43778427 5.70241762 3.24290115 8 6 C9.20643566 9.61930698 9.32268559 12.19231005 9 16 C6.7481855 20.33682792 4.57681459 23.16927416 0 25 C-4.25269938 25.55773107 -7.81118452 25.47552619 -11.8125 23.875 C-15.06840624 21.08422322 -17.53217269 18.36748974 -18.38671875 14.04296875 C-18.66909078 8.95053517 -17.31522894 5.97827473 -14 2 C-9.5425168 -0.97165547 -5.22871424 -0.5060046 0 0 Z M-14 7 C-15.76961098 10.53922195 -15.03393444 14.27526723 -14 18 C-12.21129829 20.6258382 -10.88810491 21.34201385 -8 23 C-3.48434087 23.8063677 -1.60833487 23.34922928 2.375 21.0625 C5.39866894 18.19368203 6.09394423 15.31374699 6.3125 11.22265625 C5.76471499 7.32653534 3.83898983 5.64092077 1 3 C-5.37522241 -0.18761121 -9.53713415 2.53713415 -14 7 Z " fill="#E1E1E1" transform="translate(445,473)"/>
<path d="M0 0 C3.8286758 1.59528158 5.78750612 3.5364302 8 7 C8.90436131 11.93732391 8.4874735 15.98894385 6.3125 20.5 C2.66788423 24.44012515 -0.28211471 25.09616976 -5.5 25.3125 C-9.45562329 25.20736716 -11.9102527 24.6353727 -15 22 C-18.15122435 18.30546111 -18.51593499 14.91554963 -18.359375 10.21875 C-17.80079406 6.77011984 -16.23593827 4.61924197 -14 2 C-9.53862011 -0.97425326 -5.23225066 -0.49867492 0 0 Z M-14 6 C-15.59453633 9.18907265 -15.38561702 12.52944682 -15 16 C-13.27032287 19.74547604 -13.27032287 19.74547604 -10 22 C-4.79328939 22.64507919 -1.18290165 22.9173523 3.0625 19.625 C5.87713202 15.81162758 6.55044624 13.7705341 6 9 C4.18689858 6.07062346 2.12704101 3.56352051 -1 2 C-6.86619119 1.51916466 -9.70514791 1.57500087 -14 6 Z " fill="#EDEDED" transform="translate(218,473)"/>
<path d="M0 0 C0.99 0 1.98 0 3 0 C3 3.63 3 7.26 3 11 C7.95 11 12.9 11 18 11 C18 7.37 18 3.74 18 0 C18.99 0 19.98 0 21 0 C21 8.25 21 16.5 21 25 C20.01 25 19.02 25 18 25 C18 21.37 18 17.74 18 14 C13.05 14 8.1 14 3 14 C3 17.63 3 21.26 3 25 C2.01 25 1.02 25 0 25 C0 16.75 0 8.5 0 0 Z " fill="#DBDCDB" transform="translate(324,473)"/>
<path d="M0 0 C3.36694444 2.42138889 3.36694444 2.42138889 4.5625 4.8125 C-0.32328603 2.95338656 -4.87046832 0.56749484 -9.5 -1.84765625 C-15.36695641 -4.52367493 -20.91359555 -4.31142674 -27.25 -4.25 C-28.57547852 -4.24323242 -28.57547852 -4.24323242 -29.92773438 -4.23632812 C-32.09768559 -4.22459866 -34.26760172 -4.20666495 -36.4375 -4.1875 C-35.84839844 -3.20007813 -35.25929688 -2.21265625 -34.65234375 -1.1953125 C-33.89280807 0.09871126 -33.13371634 1.39299567 -32.375 2.6875 C-31.98505859 3.33847656 -31.59511719 3.98945313 -31.19335938 4.66015625 C-30.21305467 6.34315725 -29.31851568 8.07546199 -28.4375 9.8125 C-28.7675 10.4725 -29.0975 11.1325 -29.4375 11.8125 C-30.94304634 9.52430854 -32.44207043 7.23228831 -33.9375 4.9375 C-34.36675781 4.28652344 -34.79601562 3.63554687 -35.23828125 2.96484375 C-38.4375 -1.9609375 -38.4375 -1.9609375 -38.4375 -4.1875 C-51.86158073 -1.65465458 -61.06941077 6.38153768 -70.4375 15.8125 C-68.17212156 7.50611238 -60.29546786 2.64296928 -53.3515625 -1.61328125 C-36.21270178 -10.87194193 -16.49388473 -10.67251365 0 0 Z " fill="#9E9FA0" transform="translate(328.4375,273.1875)"/>
<path d="M0 0 C3.43386619 2.54106098 6.53204164 5.6782066 7.40625 10.015625 C7.60061398 14.64796642 7.20914931 17.37102167 4.1875 21 C1.04984459 24.34683244 -1.78659795 25.16398163 -6.3125 25.3125 C-10.91166282 25.26006655 -13.48810392 24.08361607 -17 21 C-19.72514947 16.58337844 -19.80172743 12.04056354 -19 7 C-14.76296704 -0.8597749 -8.14169699 -0.98917814 0 0 Z M-16 7 C-17.57455739 10.14911479 -17.34799118 12.52008816 -17 16 C-15.22719439 18.97672584 -13.14391985 21.42804007 -10 23 C-5.02932218 23.3751455 -1.94848498 23.15878799 2 20 C4.32432174 17.01158633 4.47116644 13.70297381 4.39453125 9.96875 C3.72206358 6.61306974 1.59717314 5.04063604 -1 3 C-7.37522241 -0.18761121 -11.53713415 2.53713415 -16 7 Z " fill="#F1F1F1" transform="translate(379,473)"/>
<path d="M0 0 C1.59134766 -0.02126953 1.59134766 -0.02126953 3.21484375 -0.04296875 C6.0625 0.1875 6.0625 0.1875 9.0625 2.1875 C9.0625 2.8475 9.0625 3.5075 9.0625 4.1875 C8.18207031 4.06890625 7.30164063 3.9503125 6.39453125 3.828125 C5.23308594 3.69921875 4.07164062 3.5703125 2.875 3.4375 C1.72644531 3.29828125 0.57789063 3.1590625 -0.60546875 3.015625 C-4.73912272 3.22884982 -6.1790593 4.14299878 -8.9375 7.1875 C-9.68400971 9.61926562 -9.68400971 9.61926562 -9.5 12.1875 C-9.50193359 13.4559375 -9.50193359 13.4559375 -9.50390625 14.75 C-8.74109496 18.03271891 -7.65974903 19.219174 -4.9375 21.1875 C-1.89309865 21.66945275 -1.89309865 21.66945275 1.3125 21.4375 C2.92898438 21.38335937 2.92898438 21.38335937 4.578125 21.328125 C5.39796875 21.28171875 6.2178125 21.2353125 7.0625 21.1875 C7.0625 18.2175 7.0625 15.2475 7.0625 12.1875 C7.7225 12.1875 8.3825 12.1875 9.0625 12.1875 C9.14336147 13.97843191 9.20162702 15.77039628 9.25 17.5625 C9.30220703 19.05910156 9.30220703 19.05910156 9.35546875 20.5859375 C9.21044922 21.87371094 9.21044922 21.87371094 9.0625 23.1875 C4.59557553 26.16544964 0.30031389 25.80107248 -4.9375 25.1875 C-9.11010474 23.13779943 -11.21215061 21.45465877 -12.9375 17.1875 C-13.57845668 13.0988711 -13.89324033 8.96041608 -11.88671875 5.23828125 C-8.11678442 0.6454114 -5.73272155 0.03474377 0 0 Z " fill="#E0E0E0" transform="translate(478.9375,472.8125)"/>
<path d="M0 0 C1.5675 -0.061875 3.135 -0.12375 4.75 -0.1875 C6.07257812 -0.23970703 6.07257812 -0.23970703 7.421875 -0.29296875 C10.5125515 0.05824449 11.81474628 0.80973423 14 3 C14.5 6.5 14.5 6.5 14 10 C11.81474628 12.19026577 10.5125515 12.94175551 7.421875 13.29296875 C6.54015625 13.25816406 5.6584375 13.22335937 4.75 13.1875 C3.1825 13.125625 1.615 13.06375 0 13 C0 8.71 0 4.42 0 0 Z " fill="#121413" transform="translate(680,475)"/>
<path d="M0 0 C13.186056 -0.49293667 13.186056 -0.49293667 16.921875 1.76953125 C19 4 19 4 19.5625 7.9375 C19.32899689 11.96731175 17.8686493 14.1313507 15 17 C16.65 19.64 18.3 22.28 20 25 C18.68 25 17.36 25 16 25 C12 19.88888889 12 19.88888889 12 17 C8.7 17 5.4 17 2 17 C2 19.64 2 22.28 2 25 C1.34 25 0.68 25 0 25 C0 16.75 0 8.5 0 0 Z M2 2 C2 6.29 2 10.58 2 15 C9.04468101 15.66177795 9.04468101 15.66177795 15.1875 12.8125 C17.23699433 10.18990679 17.23699433 10.18990679 17 7.375 C15.91770942 4.80455988 15.20936078 3.67988434 13 2 C10.25756437 1.63729516 10.25756437 1.63729516 7.3125 1.8125 C5.559375 1.874375 3.80625 1.93625 2 2 Z " fill="#FDFDFD" transform="translate(119,473)"/>
<path d="M0 0 C1.5675 -0.061875 3.135 -0.12375 4.75 -0.1875 C6.07257812 -0.23970703 6.07257812 -0.23970703 7.421875 -0.29296875 C10.50039296 0.05686284 11.80816743 0.83839961 14 3 C14.4375 6 14.4375 6 14 9 C12.45493534 11.03667615 11.27853844 11.86073078 9 13 C5.99525503 13.13559318 3.00931153 13.04299016 0 13 C0 8.71 0 4.42 0 0 Z " fill="#101010" transform="translate(507,475)"/>
<path d="M0 0 C0.99 0 1.98 0 3 0 C3 3.63 3 7.26 3 11 C8.28 11 13.56 11 19 11 C19 7.37 19 3.74 19 0 C19.66 0 20.32 0 21 0 C21 8.25 21 16.5 21 25 C20.34 25 19.68 25 19 25 C19 21.04 19 17.08 19 13 C13.72 13 8.44 13 3 13 C3 16.96 3 20.92 3 25 C2.01 25 1.02 25 0 25 C0 16.75 0 8.5 0 0 Z " fill="#F5F5F5" transform="translate(607,473)"/>
<path d="M0 0 C1.06347656 0.01546875 2.12695312 0.0309375 3.22265625 0.046875 C5.9375 0.25 5.9375 0.25 7.9375 1.25 C7.9375 1.91 7.9375 2.57 7.9375 3.25 C3.9775 3.25 0.0175 3.25 -4.0625 3.25 C-4.7225 5.23 -5.3825 7.21 -6.0625 9.25 C-5.31484375 9.43175781 -4.5671875 9.61351562 -3.796875 9.80078125 C-2.81203125 10.05214844 -1.8271875 10.30351562 -0.8125 10.5625 C0.16203125 10.80613281 1.1365625 11.04976563 2.140625 11.30078125 C4.97271152 12.26195028 6.76672589 13.20572787 8.9375 15.25 C9.5 18.1875 9.5 18.1875 8.9375 21.25 C6.73185768 24.0438136 5.06677371 25.10405186 1.51953125 25.5625 C-2.94048991 25.6679067 -6.13991836 25.51477 -10.0625 23.25 C-9.5675 21.765 -9.5675 21.765 -9.0625 20.25 C-8.381875 20.58 -7.70125 20.91 -7 21.25 C-3.52400705 22.43331675 -0.71286451 22.45662441 2.9375 22.25 C3.5975 21.92 4.2575 21.59 4.9375 21.25 C4.9375 19.6 4.9375 17.95 4.9375 16.25 C4.26203125 16.07984375 3.5865625 15.9096875 2.890625 15.734375 C-6.60880552 13.15360486 -6.60880552 13.15360486 -9.0625 9.25 C-9.50754585 6.13467906 -9.73310924 4.22398009 -7.9140625 1.58203125 C-5.25556247 -0.33051835 -3.23627244 -0.07864575 0 0 Z " fill="#F2F2F2" transform="translate(719.0625,472.75)"/>
<path d="M0 0 C1.5675 -0.061875 3.135 -0.12375 4.75 -0.1875 C6.07257812 -0.23970703 6.07257812 -0.23970703 7.421875 -0.29296875 C10.50039296 0.05686284 11.80816743 0.83839961 14 3 C14.45354771 6.11004141 14.66769486 8.04519634 12.828125 10.67578125 C9.19210876 13.30956225 4.28669104 12.15129498 0 12 C0 8.04 0 4.08 0 0 Z " fill="#0E0F0F" transform="translate(576,475)"/>
<path d="M0 0 C5.61 0 11.22 0 17 0 C17 0.66 17 1.32 17 2 C12.38 2 7.76 2 3 2 C3 4.97 3 7.94 3 11 C7.29 11 11.58 11 16 11 C16 11.66 16 12.32 16 13 C11.38 13 6.76 13 2 13 C2 16.3 2 19.6 2 23 C7.28 23 12.56 23 18 23 C18 23.66 18 24.32 18 25 C12.06 25 6.12 25 0 25 C0 16.75 0 8.5 0 0 Z " fill="#F7F8F8" transform="translate(645,473)"/>
<path d="M0 0 C13.18708098 -0.49297499 13.18708098 -0.49297499 16.91796875 1.76953125 C19 4 19 4 19.625 7.9375 C19.38379519 11.00998987 18.86620017 12.22937114 17.25 15 C12.34061709 18.02115871 7.61992525 17.40334392 2 17 C2 19.64 2 22.28 2 25 C1.34 25 0.68 25 0 25 C0 16.75 0 8.5 0 0 Z M2 2 C2 6.29 2 10.58 2 15 C8.8528904 15.51633691 8.8528904 15.51633691 15.125 13.3125 C17.16005866 11.15234615 17.16005866 11.15234615 17.5625 8.5 C17.11352999 5.93906967 17.11352999 5.93906967 15.6875 3.6875 C11.30519073 0.93581744 7.09535849 1.75736388 2 2 Z " fill="#FAFAFA" transform="translate(290,473)"/>
<path d="M0 0 C5.61 0 11.22 0 17 0 C17 0.66 17 1.32 17 2 C12.38 2 7.76 2 3 2 C3 5.3 3 8.6 3 12 C7.29 12 11.58 12 16 12 C16 12.66 16 13.32 16 14 C11.38 14 6.76 14 2 14 C2 17.63 2 21.26 2 25 C1.34 25 0.68 25 0 25 C0 16.75 0 8.5 0 0 Z " fill="#F5F5F5" transform="translate(241,473)"/>
<path d="M0 0 C3.9115468 1.47958509 5.2274524 3.53957471 7.25 7.125 C8.03117188 8.49011719 8.03117188 8.49011719 8.828125 9.8828125 C9.40820312 10.93082031 9.40820312 10.93082031 10 12 C13.21355639 9.03585396 15.2901106 5.54478538 17.59765625 1.86328125 C18.06042969 1.24839844 18.52320313 0.63351562 19 0 C19.66 0 20.32 0 21 0 C19.9581082 4.06337801 18.40058886 6.9245347 15.9375 10.25 C12.59256476 15.02731627 12.0239888 19.2546814 12 25 C11.01 25 10.02 25 9 25 C9.020625 24.42894531 9.04125 23.85789062 9.0625 23.26953125 C8.87041628 15.71823985 5.80742937 10.78681917 1.71484375 4.6875 C0 2 0 2 0 0 Z " fill="#E5E5E5" transform="translate(150,473)"/>
<path d="M0 0 C6.93 0 13.86 0 21 0 C21 0.66 21 1.32 21 2 C18.03 2 15.06 2 12 2 C12 9.59 12 17.18 12 25 C11.01 25 10.02 25 9 25 C9 17.41 9 9.82 9 2 C6.03 2 3.06 2 0 2 C0 1.34 0 0.68 0 0 Z " fill="#EFEFEF" transform="translate(396,473)"/>
<path d="M0 0 C2.3987917 1.18458849 4.7705962 2.40689015 7.13671875 3.65625 C18.90065393 9.8147628 27.65753578 11.34162782 41 11 C40.34 9.02 39.68 7.04 39 5 C40.5 6.375 40.5 6.375 42 8 C42 8.66 42 9.32 42 10 C45.96 9.34 49.92 8.68 54 8 C53 10 53 10 51.09716797 10.83398438 C44.68987444 12.79691974 38.81604632 13.54580093 32.125 13.5 C31.16118408 13.49500488 30.19736816 13.49000977 29.2043457 13.48486328 C21.60457618 13.29904985 15.57654962 11.96239688 9 8 C8.10410156 7.47277344 7.20820313 6.94554687 6.28515625 6.40234375 C1.9693159 3.6957998 1.9693159 3.6957998 0 2 C0 1.34 0 0.68 0 0 Z " fill="#949696" transform="translate(267,355)"/>
<path d="M0 0 C-0.41003225 2.87022573 -0.80058961 3.8308033 -3.0625 5.75 C-5.55707712 8.64692827 -5.4591027 10.38703039 -5.265625 14.09765625 C-4.941179 16.42126213 -4.37466491 18.09074318 -3 20 C-0.70370006 21.14814997 1.07698086 21.30769809 3.625 21.5625 C4.44226563 21.64628906 5.25953125 21.73007812 6.1015625 21.81640625 C7.04128906 21.90728516 7.04128906 21.90728516 8 22 C8 22.33 8 22.66 8 23 C5.69 23 3.38 23 1 23 C1 23.66 1 24.32 1 25 C-2.9376478 23.68745073 -5.2658672 22.1247232 -8 19 C-9.73459436 15.53081128 -9.47173877 11.79303468 -9 8 C-4.78181818 0 -4.78181818 0 0 0 Z " fill="#E5E5E5" transform="translate(209,473)"/>
<path d="M0 0 C10.25334624 1.11244084 20.98955077 4.48170479 28.81640625 11.4140625 C29.31140625 12.4040625 29.31140625 12.4040625 29.81640625 13.4140625 C24.93062022 11.55494906 20.38343793 9.16905734 15.75390625 6.75390625 C11.53828617 4.83109018 7.55219386 4.30535613 2.953125 4.09765625 C1.6237793 4.03481445 1.6237793 4.03481445 0.26757812 3.97070312 C-0.64443359 3.93138672 -1.55644531 3.89207031 -2.49609375 3.8515625 C-3.42744141 3.80837891 -4.35878906 3.76519531 -5.31835938 3.72070312 C-7.60663829 3.61509025 -9.89501747 3.51298498 -12.18359375 3.4140625 C-8.49931743 -0.6322603 -5.31205939 -0.13057576 0 0 Z " fill="#AFB1B1" transform="translate(303.18359375,264.5859375)"/>
<path d="M0 0 C3.46692734 3.7971109 4.51061867 8.17724141 6 13 C2.37 13 -1.26 13 -5 13 C-2.05357143 3.89285714 -2.05357143 3.89285714 0 0 Z " fill="#101211" transform="translate(547,476)"/>
<path d="M0 0 C3.46692734 3.7971109 4.51061867 8.17724141 6 13 C2.37 13 -1.26 13 -5 13 C-2.05357143 3.89285714 -2.05357143 3.89285714 0 0 Z " fill="#121312" transform="translate(93,476)"/>
<path d="M0 0 C1.828125 0.12109375 1.828125 0.12109375 4 1 C5.484375 3.72265625 5.484375 3.72265625 6.75 7.0625 C7.17796875 8.16722656 7.6059375 9.27195312 8.046875 10.41015625 C8.36140625 11.26480469 8.6759375 12.11945313 9 13 C8.01 13.33 7.02 13.66 6 14 C4.68 11.03 3.36 8.06 2 5 C-0.86453858 8.41016497 -2.34703566 11.90694544 -4 16 C-4.99 16 -5.98 16 -7 16 C-5.26017005 10.18738629 -3.1889511 5.16830006 0 0 Z " fill="#E3E3E3" transform="translate(546,473)"/>
<path d="M0 0 C1.828125 0.12109375 1.828125 0.12109375 4 1 C5.484375 3.72265625 5.484375 3.72265625 6.75 7.0625 C7.17796875 8.16722656 7.6059375 9.27195312 8.046875 10.41015625 C8.36140625 11.26480469 8.6759375 12.11945313 9 13 C8.01 13.33 7.02 13.66 6 14 C4.68 11.03 3.36 8.06 2 5 C-0.86453858 8.41016497 -2.34703566 11.90694544 -4 16 C-4.99 16 -5.98 16 -7 16 C-5.26017005 10.18738629 -3.1889511 5.16830006 0 0 Z " fill="#E3E3E3" transform="translate(92,473)"/>
<path d="M0 0 C0.99 0 1.98 0 3 0 C3 8.58 3 17.16 3 26 C2.01 26 1.02 26 0 26 C0 17.42 0 8.84 0 0 Z " fill="#DEDEDE" transform="translate(65,472)"/>
<path d="M0 0 C2.86724686 0.57344937 3.8614515 0.8614515 6 3 C6.68571429 9.97142857 6.68571429 9.97142857 4 14 C3.34 14.66 2.68 15.32 2 16 C3.65 18.64 5.3 21.28 7 24 C5.68 24 4.36 24 3 24 C-1 18.88888889 -1 18.88888889 -1 16 C-1.66 15.67 -2.32 15.34 -3 15 C-2.34 15 -1.68 15 -1 15 C-1 14.34 -1 13.68 -1 13 C-0.319375 12.443125 0.36125 11.88625 1.0625 11.3125 C3.43572504 9.02156088 3.43572504 9.02156088 2.75 5.25 C2.5025 4.1775 2.255 3.105 2 2 C1.34 2 0.68 2 0 2 C0 1.34 0 0.68 0 0 Z " fill="#EBEBEB" transform="translate(132,474)"/>
<path d="M0 0 C0.99 0.33 1.98 0.66 3 1 C3 1.66 3 2.32 3 3 C3.66 3 4.32 3 5 3 C6.38232443 4.62626404 7.71937515 6.2925002 9 8 C8.67 8.66 8.34 9.32 8 10 C6.68 9.01 5.36 8.02 4 7 C3.73719238 7.70213623 3.47438477 8.40427246 3.20361328 9.12768555 C1.91060373 12.21333613 0.38586908 15.04323208 -1.2578125 17.95703125 C-2.19560547 19.62475586 -2.19560547 19.62475586 -3.15234375 21.32617188 C-3.8098291 22.48831901 -4.46738203 23.65042791 -5.125 24.8125 C-5.79064641 25.99398189 -6.45601384 27.175621 -7.12109375 28.35742188 C-8.74465934 31.23983905 -10.37105015 34.12062331 -12 37 C-12.99 37 -13.98 37 -15 37 C-14.35933594 35.92363281 -13.71867187 34.84726562 -13.05859375 33.73828125 C-10.34922159 29.17228334 -7.66795419 24.59030516 -5 20 C-4.61166992 19.33452148 -4.22333984 18.66904297 -3.82324219 17.98339844 C-2.80538821 16.22629007 -1.80823037 14.4572394 -0.8125 12.6875 C-0.24144531 11.68074219 0.32960938 10.67398437 0.91796875 9.63671875 C2.10400491 6.74655842 2.14160167 5.8328634 1 3 C0.67 2.01 0.34 1.02 0 0 Z " fill="#959697" transform="translate(333,278)"/>
<path d="M0 0 C0.33 0 0.66 0 1 0 C1 3.96 1 7.92 1 12 C2.77375 11.87625 4.5475 11.7525 6.375 11.625 C7.37273438 11.55539062 8.37046875 11.48578125 9.3984375 11.4140625 C12.15508879 11.23636036 12.15508879 11.23636036 14 9 C14.16677282 5.41656024 14.16677282 5.41656024 14 2 C14.99 2 15.98 2 17 2 C17.33 2.33 17.66 2.66 18 3 C17.76337538 10.21705089 17.76337538 10.21705089 14.5625 13.5 C12 15 12 15 10 15 C10 14.34 10 13.68 10 13 C6.7 13 3.4 13 0 13 C0 8.71 0 4.42 0 0 Z " fill="#C4C4C4" transform="translate(575,475)"/>
<path d="M0 0 C0.36630156 3.93774177 0.30233203 5.56539771 -2 8.875 C-2.66 9.57625 -3.32 10.2775 -4 11 C-2.80100302 14.0831351 -1.52299523 17.06279492 0 20 C-1.75 19.875 -1.75 19.875 -4 19 C-6.125 16.0625 -6.125 16.0625 -8 13 C-8.66 12.34 -9.32 11.68 -10 11 C-9.34 11 -8.68 11 -8 11 C-8 10.34 -8 9.68 -8 9 C-6.68 8.67 -5.36 8.34 -4 8 C-3.814375 6.2984375 -3.814375 6.2984375 -3.625 4.5625 C-3.41875 3.386875 -3.2125 2.21125 -3 1 C-1 0 -1 0 0 0 Z " fill="#E5E5E5" transform="translate(524,478)"/>
<path d="M0 0 C0.33 0 0.66 0 1 0 C1.34717213 3.73210035 1.2922789 5.54070458 -0.75 8.75 C-3.4777094 11.4777094 -5.4722574 12.87353124 -9.359375 13.1953125 C-10.54273438 13.16050781 -10.54273438 13.16050781 -11.75 13.125 C-12.54921875 13.10695313 -13.3484375 13.08890625 -14.171875 13.0703125 C-14.77515625 13.04710937 -15.3784375 13.02390625 -16 13 C-16.33 12.01 -16.66 11.02 -17 10 C-16.11248047 10.06960938 -16.11248047 10.06960938 -15.20703125 10.140625 C-11.18643033 10.32427398 -8.69217013 10.39122659 -5.125 8.375 C-2.78175932 5.75608395 -1.38918197 3.21705298 0 0 Z " fill="#EAEAEA" transform="translate(452,485)"/>
<path d="M0 0 C2.0625 -0.04125 4.125 -0.0825 6.25 -0.125 C7.99023438 -0.15980469 7.99023438 -0.15980469 9.765625 -0.1953125 C12.85166412 -0.00895748 14.54173503 0.15630127 17 2 C17.75 5.625 17.75 5.625 18 9 C17.38125 8.195625 16.7625 7.39125 16.125 6.5625 C13.73767071 3.68366173 13.03924083 3.12639415 9.3984375 2.68359375 C8.40070312 2.60238281 7.40296875 2.52117187 6.375 2.4375 C4.60125 2.293125 2.8275 2.14875 1 2 C1 6.29 1 10.58 1 15 C0.67 15 0.34 15 0 15 C0 10.05 0 5.1 0 0 Z " fill="#F9F9F9" transform="translate(505,473)"/>
<path d="M0 0 C0.33 1.32 0.66 2.64 1 4 C1.66 4 2.32 4 3 4 C1.25 8.875 1.25 8.875 -1 10 C-0.71125 10.556875 -0.4225 11.11375 -0.125 11.6875 C1.0413253 14.08494645 2.0339881 16.51596939 3 19 C2.01 19 1.02 19 0 19 C-1.60546875 17.03125 -1.60546875 17.03125 -3.1875 14.5 C-3.98220703 13.24703125 -3.98220703 13.24703125 -4.79296875 11.96875 C-5.39044922 10.99421875 -5.39044922 10.99421875 -6 10 C-5.195625 9.46375 -4.39125 8.9275 -3.5625 8.375 C-0.53491576 5.56894631 -0.27489191 4.03174806 0 0 Z " fill="#E6E6E6" transform="translate(694,479)"/>
<path d="M0 0 C0.66 0.33 1.32 0.66 2 1 C-3.03320206 6.77505724 -8.03739811 12.17917294 -14 17 C-14 12.95607032 -12.51908749 11.99868382 -9.8125 9.0625 C-9.03519531 8.20785156 -8.25789062 7.35320312 -7.45703125 6.47265625 C-5.09786332 4.09848566 -2.65532732 2.0327639 0 0 Z " fill="#9A9C9C" transform="translate(261,263)"/>
<path d="M0 0 C3.38303514 0.93973198 4.93446957 1.9273852 7.3125 4.5625 C9.44213557 8.90064653 9.37889976 12.26375296 9 17 C5.69384744 14.05321185 5.20717888 11.22512608 4 7 C2.60414215 5.18523997 2.60414215 5.18523997 1 4 C0.34 3.34 -0.32 2.68 -1 2 C-0.67 1.34 -0.34 0.68 0 0 Z " fill="#DBDBDB" transform="translate(377,473)"/>
<path d="M0 0 C2.44498137 1.21637823 4.88031323 2.44949956 7.3125 3.69140625 C8.54161931 4.31519749 9.77078717 4.93889307 11 5.5625 C11.61617188 5.87896484 12.23234375 6.19542969 12.8671875 6.52148438 C15.86743092 8.03770181 18.67801213 9.39373721 22 10 C22 10.66 22 11.32 22 12 C22.99 12.33 23.98 12.66 25 13 C19.67896482 12.49583021 15.55667464 11.12901366 10.8125 8.625 C10.20986328 8.32078125 9.60722656 8.0165625 8.98632812 7.703125 C5.77941746 6.05566705 2.70364855 4.40175231 0 2 C0 1.34 0 0.68 0 0 Z " fill="#A9ABAB" transform="translate(267,355)"/>
<path d="M0 0 C4.58151466 1.52717155 7.79607006 3.59214011 10 8 C10.06950541 9.54023996 10.08452357 11.08334988 10.0625 12.625 C10.05347656 13.44226563 10.04445313 14.25953125 10.03515625 15.1015625 C10.02355469 15.72804688 10.01195312 16.35453125 10 17 C7.46061155 14.79690894 6.64456788 13.36365691 6.125 10.0625 C5.23770852 5.89375985 3.53789773 4.42066687 0 2 C0 1.34 0 0.68 0 0 Z " fill="#DEDEDE" transform="translate(41,473)"/>
<path d="M0 0 C1.50433594 0.01353516 1.50433594 0.01353516 3.0390625 0.02734375 C3.80992187 0.03894531 4.58078125 0.05054688 5.375 0.0625 C5.375 0.3925 5.375 0.7225 5.375 1.0625 C2.405 1.0625 -0.565 1.0625 -3.625 1.0625 C-2.96371094 2.19429688 -2.30242187 3.32609375 -1.62109375 4.4921875 C-0.76780833 5.97371603 0.08503342 7.45550016 0.9375 8.9375 C1.37513672 9.68386719 1.81277344 10.43023437 2.26367188 11.19921875 C2.67294922 11.91464844 3.08222656 12.63007813 3.50390625 13.3671875 C3.88619385 14.02702637 4.26848145 14.68686523 4.66235352 15.36669922 C4.89752686 15.92631348 5.1327002 16.48592773 5.375 17.0625 C5.045 17.7225 4.715 18.3825 4.375 19.0625 C4.08254395 18.58828613 3.79008789 18.11407227 3.48876953 17.62548828 C2.16201067 15.4777283 0.83106004 13.33259676 -0.5 11.1875 C-1.19029297 10.06794922 -1.19029297 10.06794922 -1.89453125 8.92578125 C-2.56162109 7.85263672 -2.56162109 7.85263672 -3.2421875 6.7578125 C-3.65065918 6.09797363 -4.05913086 5.43813477 -4.47998047 4.75830078 C-5.64765066 2.91295821 -5.64765066 2.91295821 -7.625 1.0625 C-4.98041621 -0.25979189 -2.94738699 -0.03427194 0 0 Z " fill="#8A8C8D" transform="translate(294.625,265.9375)"/>
<path d="M0 0 C3.35321326 2.2354755 3.51662787 2.81853011 4.5625 6.5 C5.59340655 10.12553244 5.59340655 10.12553244 8 13 C8 13.99 8 14.98 8 16 C3.74985925 14.48209259 2.04100726 11.93622829 0 8 C-0.31827037 5.23502619 -0.19294027 2.79763387 0 0 Z " fill="#D8D8D8" transform="translate(427,481)"/>
<path d="M0 0 C2.86724686 0.57344937 3.8614515 0.8614515 6 3 C6.69064748 10.13669065 6.69064748 10.13669065 4 13.5 C3.34 13.995 2.68 14.49 2 15 C1.67 14.01 1.34 13.02 1 12 C1.66 11.34 2.32 10.68 3 10 C3.23779528 6.9086614 2.98965019 4.96895056 2 2 C1.34 2 0.68 2 0 2 C0 1.34 0 0.68 0 0 Z " fill="#EFEFEF" transform="translate(303,474)"/>
<path d="M0 0 C0.66 0.33 1.32 0.66 2 1 C1.875 2.8125 1.875 2.8125 1 5 C-3.38397423 7.92264949 -6.80136436 8.31191814 -12 8 C-12 7.34 -12 6.68 -12 6 C-10.4221875 5.9071875 -10.4221875 5.9071875 -8.8125 5.8125 C-4.3708265 4.86591384 -2.88406243 3.40843742 0 0 Z " fill="#EBEBEB" transform="translate(222,490)"/>
<path d="M0 0 C2.9375 0.75 2.9375 0.75 4.9375 2.75 C5.0625 5.875 5.0625 5.875 4.9375 8.75 C3.9475 8.42 2.9575 8.09 1.9375 7.75 C1.25 5.6875 1.25 5.6875 0.9375 3.75 C-1.3725 3.09 -3.6825 2.43 -6.0625 1.75 C-3.0625 -0.25 -3.0625 -0.25 0 0 Z " fill="#DDDDDD" transform="translate(723.0625,485.25)"/>
<path d="M0 0 C0.639375 0.804375 1.27875 1.60875 1.9375 2.4375 C5.90127449 5.75412763 8.97294083 5.87952582 14 6 C14 6.33 14 6.66 14 7 C11.69 7 9.38 7 7 7 C7 7.66 7 8.32 7 9 C1.00274725 6.89285714 1.00274725 6.89285714 -1 4 C-0.6875 1.8125 -0.6875 1.8125 0 0 Z " fill="#CACACA" transform="translate(203,489)"/>
<path d="M0 0 C0.2784375 0.8971875 0.2784375 0.8971875 0.5625 1.8125 C2.72273753 5.09981799 5.35107655 5.64854687 9 7 C9 7.66 9 8.32 9 9 C5.39991481 9.32728047 3.58388508 9.40422813 0.5625 7.3125 C-1 5 -1 5 -0.75 2.25 C-0.5025 1.5075 -0.255 0.765 0 0 Z " fill="#EEEEEE" transform="translate(711,477)"/>
<path d="M0 0 C0.33 0 0.66 0 1 0 C1.3125 2.6875 1.3125 2.6875 1 6 C-1.375 8.875 -1.375 8.875 -4 11 C-4.66 11 -5.32 11 -6 11 C-5.67 9.68 -5.34 8.36 -5 7 C-4.34 7 -3.68 7 -3 7 C-2.690625 6.030625 -2.38125 5.06125 -2.0625 4.0625 C-1 1 -1 1 0 0 Z " fill="#E7E7E7" transform="translate(384,486)"/>
<path d="M0 0 C2.86724686 0.57344937 3.8614515 0.8614515 6 3 C6.26991906 5.68839385 6.08737357 8.29141936 6 11 C5.01 11 4.02 11 3 11 C3.020625 10.071875 3.04125 9.14375 3.0625 8.1875 C3.15769604 4.97713989 3.15769604 4.97713989 2 2 C1.34 2 0.68 2 0 2 C0 1.34 0 0.68 0 0 Z " fill="#EDEDED" transform="translate(132,474)"/>
<path d="M0 0 C1.4370809 -0.05422947 2.87475462 -0.09289723 4.3125 -0.125 C5.11300781 -0.14820313 5.91351563 -0.17140625 6.73828125 -0.1953125 C9 0 9 0 12 2 C12 2.66 12 3.32 12 4 C7.71 3.34 3.42 2.68 -1 2 C-0.67 1.34 -0.34 0.68 0 0 Z " fill="#E7E7E7" transform="translate(476,473)"/>
<path d="M0 0 C0.515625 0.391875 1.03125 0.78375 1.5625 1.1875 C0.510625 1.455625 -0.54125 1.72375 -1.625 2 C-5.388736 3.0076548 -5.388736 3.0076548 -8.25 4.875 C-8.971875 5.308125 -9.69375 5.74125 -10.4375 6.1875 C-11.0975 5.8575 -11.7575 5.5275 -12.4375 5.1875 C-9.45081839 1.49806977 -4.71352993 -1.57117664 0 0 Z " fill="#ABACAD" transform="translate(287.4375,267.8125)"/>
<path d="M0 0 C3.63 0 7.26 0 11 0 C10.67 0.99 10.34 1.98 10 3 C7.03 3 4.06 3 1 3 C0.67 2.01 0.34 1.02 0 0 Z " fill="#F3F3F3" transform="translate(435,495)"/>
<path d="M0 0 C0.33 1.32 0.66 2.64 1 4 C1.66 4 2.32 4 3 4 C2.1875 6.4375 2.1875 6.4375 1 9 C0.01 9.33 -0.98 9.66 -2 10 C-2.33 9.01 -2.66 8.02 -3 7 C-2.34 6.67 -1.68 6.34 -1 6 C-0.34227572 2.97065509 -0.34227572 2.97065509 0 0 Z " fill="#D1D2D2" transform="translate(694,479)"/>
<path d="M0 0 C2.46800047 1.15173355 4.04783565 2.04783565 6 4 C5.67 4.99 5.34 5.98 5 7 C2.5 5.1875 2.5 5.1875 0 3 C0 2.01 0 1.02 0 0 Z " fill="#E8E8E8" transform="translate(361,490)"/>
<path d="M0 0 C0.66 0 1.32 0 2 0 C2.1953125 6.0546875 2.1953125 6.0546875 2 8 C1.34 8.66 0.68 9.32 0 10 C-1.2380014 6.42355152 -0.74926071 3.66305234 0 0 Z " fill="#F9F9F9" transform="translate(224,482)"/>
<path d="M0 0 C1.2077558 3.62326739 0.54311128 4.64146369 -1 8 C-1.99 8 -2.98 8 -4 8 C-2.25 2.25 -2.25 2.25 0 0 Z " fill="#E7E7E7" transform="translate(543,481)"/>
<path d="M0 0 C1.2077558 3.62326739 0.54311128 4.64146369 -1 8 C-1.99 8 -2.98 8 -4 8 C-2.25 2.25 -2.25 2.25 0 0 Z " fill="#E7E7E7" transform="translate(89,481)"/>
<path d="M0 0 C-0.125 1.875 -0.125 1.875 -1 4 C-4.0625 5.25 -4.0625 5.25 -7 6 C-5.52522876 2.59668175 -4.14385429 0 0 0 Z " fill="#DCDCDC" transform="translate(209,473)"/>
<path d="M0 0 C0.33 0.99 0.66 1.98 1 3 C-0.3125 5.1875 -0.3125 5.1875 -2 7 C-2.66 7 -3.32 7 -4 7 C-3.39816251 4.97954558 -2.72693904 2.97888961 -2 1 C-1.34 0.67 -0.68 0.34 0 0 Z " fill="#DCDCDC" transform="translate(546,475)"/>
<path d="M0 0 C0.33 0.99 0.66 1.98 1 3 C-0.3125 5.1875 -0.3125 5.1875 -2 7 C-2.66 7 -3.32 7 -4 7 C-3.39816251 4.97954558 -2.72693904 2.97888961 -2 1 C-1.34 0.67 -0.68 0.34 0 0 Z " fill="#DCDCDC" transform="translate(92,475)"/>
<path d="M0 0 C2.475 0.99 2.475 0.99 5 2 C5 2.99 5 3.98 5 5 C3.02 4.34 1.04 3.68 -1 3 C-0.67 2.01 -0.34 1.02 0 0 Z " fill="#D0D0D0" transform="translate(710,493)"/>
<path d="M0 0 C1.875 0.25 1.875 0.25 4 1 C5.25 3.0625 5.25 3.0625 6 5 C4.68 5 3.36 5 2 5 C1.34 3.35 0.68 1.7 0 0 Z " fill="#DADADA" transform="translate(133,493)"/>
<path d="M0 0 C0.66 0.33 1.32 0.66 2 1 C1.34 3.31 0.68 5.62 0 8 C-0.99 7.01 -1.98 6.02 -3 5 C-1.125 1.125 -1.125 1.125 0 0 Z " fill="#D4D4D4" transform="translate(713,473)"/>
</svg>
